<?xml version="1.0" encoding="utf-8"?>
<!-- Generator: Adobe Illustrator 27.5.0, SVG Export Plug-In . SVG Version: 6.00 Build 0)  -->
<svg version="1.1" xmlns="http://www.w3.org/2000/svg" xmlns:xlink="http://www.w3.org/1999/xlink" x="0px" y="0px"
	 viewBox="0 0 3710 3710" style="enable-background:new 0 0 3710 3710;" xml:space="preserve">
<g id="Background">
	<g>
		<g>
			<rect style="fill:none;" width="3710" height="3710"/>
		</g>
	</g>
</g>
<g id="Illustration">
	<g>
		<circle style="fill:#F4F7FA;" cx="1850" cy="1911.738" r="1456.738"/>
		<g>
			<g>
				<g>
					<defs>
						<path id="SVGID_1_" d="M1468.492,2789.857c25.001,0.309,79.665-21.06,91.618-32.505
							c79.546-76.166,237.74-209.096,247.284-325.127c1.63-19.816-83.611-50.519-93.36-70.302
							c-49.595-32.766-68.833-41.056-100.679-95.369c-94.02-160.342,205.404-393.905-84.827-532.102
							c-212.59-101.226-411.366-51.238-338.443-393.212c72.921-341.974-111.675-1010.168-510.535-820.984
							c-228.909,108.573-58.103,432.406-196.523,633.76c-131.534,191.338-68.309,373.191,132.856,527.753
							c201.163,154.562,70.869,232.965-20.437,419.576c-109.678,224.161,245.901,317.075,413.721,345.968
							C1144.31,2470.578,1472.731,2620.996,1468.492,2789.857z"/>
					</defs>
					
						<linearGradient id="SVGID_00000060028469701205433700000009344542788839288483_" gradientUnits="userSpaceOnUse" x1="990.9148" y1="947.6842" x2="1131.6625" y2="2068.2488">
						<stop  offset="0" style="stop-color:#FF9085"/>
						<stop  offset="1" style="stop-color:#FB6FBB"/>
					</linearGradient>
					
						<use xlink:href="#SVGID_1_"  style="overflow:visible;fill:url(#SVGID_00000060028469701205433700000009344542788839288483_);"/>
					<clipPath id="SVGID_00000175280431216521704570000007634071191878922167_">
						<use xlink:href="#SVGID_1_"  style="overflow:visible;"/>
					</clipPath>
					<g style="opacity:0.7;clip-path:url(#SVGID_00000175280431216521704570000007634071191878922167_);">
						<g>
							<path style="fill:#FCFDFE;" d="M1679.276,2604.267l2.975-4.404C1003.744,2141.257,670.855,1329.785,791.772,429.181
								l-5.272-0.709c-57.304,426.822-10.411,849.692,135.612,1222.894C1075.625,2043.719,1337.449,2373.226,1679.276,2604.267z"/>
							<path style="fill:#FCFDFE;" d="M539.172,2189.284c220.534-39.246,573.262,8.864,786.289,107.252l2.228-4.827
								c-213.864-98.772-568.007-147.067-789.447-107.66L539.172,2189.284z"/>
							<path style="fill:#FCFDFE;" d="M1547.114,2512.717l4.08-3.41c-78.165-93.632-105.992-223.183-82.706-385.054
								c17.072-118.691,60.718-251.672,129.728-395.255l-4.795-2.302c-69.241,144.071-113.048,277.573-130.197,396.798
								C1439.714,2286.922,1467.938,2417.874,1547.114,2512.717z"/>
							<path style="fill:#FCFDFE;" d="M903.444,1597.59l4.252-3.194c-138.26-184.069-367.917-260.636-536.23-292.46l-0.987,5.228
								C537.869,1338.81,766.21,1414.884,903.444,1597.59z"/>
							<path style="fill:#FCFDFE;" d="M780.081,1085.246l5.305,0.363c17.762-258.736,197.135-463.513,302.474-562.55l-3.642-3.876
								C978.31,618.757,797.967,824.698,780.081,1085.246z"/>
						</g>
					</g>
				</g>
			</g>
		</g>
		<g>
			<g>
				<defs>
					<path id="SVGID_00000023266232956184553600000012032989841215066019_" d="M1575.515,2508.69
						c95.424-71.651,107.582-252.399,80.19-372.66c-31.981-140.408-105.036-142.017-121.41-253.15
						c-30.489-206.915,210.252-286.191,196.055-497.294c-11.607-172.574-176.901-185.079-181.058-376.776
						c-3.001-138.326,81.625-198.302,39.335-317.843c-3.615-10.219-44.184-119.869-139.519-142.988
						c-96.223-23.333-191.96,55.132-238.617,117.446c-86.244,115.184-17.655,192.364-69.785,366.426
						c-70.974,236.98-240.121,234.198-256.314,419.493c-13.373,153.012,98.883,190.202,80.687,359.563
						c-16.898,157.268-119.834,182.347-121.064,289.24C841.186,2346.054,1380.875,2654.838,1575.515,2508.69z"/>
				</defs>
				
					<linearGradient id="SVGID_00000036243521787254254390000007833172528738438793_" gradientUnits="userSpaceOnUse" x1="1501.2787" y1="1354.5521" x2="1980.9259" y2="228.6412">
					<stop  offset="0" style="stop-color:#FFC444"/>
					<stop  offset="0.9964" style="stop-color:#F36F56"/>
				</linearGradient>
				
					<use xlink:href="#SVGID_00000023266232956184553600000012032989841215066019_"  style="overflow:visible;fill:url(#SVGID_00000036243521787254254390000007833172528738438793_);"/>
				<clipPath id="SVGID_00000008131418041817341710000007790432880546389911_">
					<use xlink:href="#SVGID_00000023266232956184553600000012032989841215066019_"  style="overflow:visible;"/>
				</clipPath>
				<g style="clip-path:url(#SVGID_00000008131418041817341710000007790432880546389911_);">
					<g style="opacity:0.7;">
						<path style="fill:#FFFFFF;" d="M1438.282,2626.805c-0.322,0-0.65-0.079-0.953-0.245
							c-92.854-50.952-170.973-119.094-232.19-202.533c-58.042-79.115-118.06-160.92-116.469-265.257
							c1.206-79.254,36.879-122.712,82.043-177.732c43.302-52.75,97.19-118.399,132.751-238.158
							c20.299-68.365,45.562-153.446,21.209-253.837c-14.151-58.323-38.063-90.83-59.161-119.512
							c-21.86-29.72-40.741-55.386-38.6-100.26c3.444-72.225,40.685-119.499,83.807-174.238
							c26.276-33.356,53.449-67.848,76.886-112.342c65.907-125.123,62.943-290.795-8.81-492.414
							c-0.367-1.033,0.172-2.167,1.204-2.535c1.034-0.37,2.166,0.172,2.535,1.204c72.14,202.707,75.028,369.449,8.581,495.594
							c-23.605,44.815-50.892,79.451-77.279,112.948c-42.699,54.203-79.576,101.015-82.96,171.971
							c-2.074,43.468,15.537,67.409,37.834,97.72c21.318,28.982,45.481,61.83,59.819,120.928
							c24.606,101.431-0.825,187.081-21.261,255.902c-35.789,120.528-89.961,186.52-133.487,239.546
							c-44.672,54.421-79.957,97.406-81.144,175.274c-1.57,103.004,58.048,184.263,115.702,262.847
							c60.872,82.97,138.557,150.731,230.9,201.403c0.962,0.527,1.313,1.733,0.785,2.694
							C1439.663,2626.433,1438.984,2626.805,1438.282,2626.805z"/>
					</g>
					<g style="opacity:0.7;">
						<path style="fill:#FFFFFF;" d="M1334.846,1538.913c-0.525,0-1.05-0.208-1.44-0.619c-0.755-0.796-0.721-2.052,0.074-2.806
							c151.316-143.373,220.484-274.335,251.864-358.952c33.943-91.529,32.162-149.817,32.139-150.395
							c-0.042-1.095,0.813-2.017,1.909-2.058c1.052-0.042,2.017,0.812,2.058,1.907c0.021,0.586,1.828,59.664-32.387,151.925
							c-31.526,85.012-100.984,216.555-252.853,360.453C1335.827,1538.733,1335.337,1538.913,1334.846,1538.913z"/>
					</g>
					<g style="opacity:0.7;">
						<path style="fill:#FFFFFF;" d="M1269.042,1840.511c-0.423,0-0.847-0.134-1.208-0.411
							c-88.422-68.034-156.418-146.136-202.1-232.14c-36.559-68.831-58.984-142.838-66.65-219.965
							c-13.056-131.33,21.77-227.529,22.124-228.485c0.378-1.028,1.521-1.554,2.549-1.174c1.027,0.379,1.554,1.521,1.175,2.549
							c-0.352,0.948-34.89,96.438-21.879,226.903c7.637,76.585,29.925,150.072,66.247,218.419
							c45.412,85.456,113.023,163.091,200.957,230.747c0.868,0.669,1.031,1.914,0.362,2.783
							C1270.225,1840.244,1269.637,1840.511,1269.042,1840.511z"/>
					</g>
					<g style="opacity:0.7;">
						<path style="fill:#FFFFFF;" d="M1141.914,2339.349c-0.837,0-1.615-0.533-1.887-1.371c-0.34-1.042,0.23-2.162,1.273-2.501
							c226.842-73.816,342.663-199.29,399.88-291.552c61.999-99.971,70.477-183.585,70.557-184.417
							c0.102-1.091,1.071-1.881,2.16-1.791c1.092,0.103,1.892,1.07,1.79,2.161c-0.078,0.84-8.6,85.215-71.016,185.948
							c-57.556,92.89-174.047,219.201-402.144,293.424C1142.325,2339.317,1142.117,2339.349,1141.914,2339.349z"/>
					</g>
					<g style="opacity:0.7;">
						<path style="fill:#FFFFFF;" d="M1396.328,962.12c-0.515,0-1.031-0.2-1.419-0.597
							c-134.492-137.55-154.679-284.563-147.931-383.67c7.311-107.36,46.98-183.244,47.38-183.998
							c0.515-0.968,1.715-1.336,2.684-0.823c0.967,0.513,1.336,1.714,0.823,2.683c-0.397,0.748-39.715,76.013-46.936,182.572
							c-6.66,98.254,13.408,244.018,146.819,380.462c0.766,0.784,0.752,2.04-0.031,2.806
							C1397.33,961.932,1396.829,962.12,1396.328,962.12z"/>
					</g>
				</g>
			</g>
		</g>
		<g>
			<path style="fill:#97A6B7;" d="M2282.834,2961.765c-40.731-13.51-71.175-48.079-79.76-90.567l-59.282-293.409l-507.123,18.008
				l-62.413,305.667c-8.74,42.808,26.249,85.756,66.547,101.522l212.169,83.014c39.463,15.44,81.881,21.589,124.041,17.983
				l448.391-38.359c13.107-1.122,23.622-11.426,25.147-24.644c1.525-13.219,10.709-28.061-1.79-32.207L2282.834,2961.765z"/>
			
				<linearGradient id="SVGID_00000172437506977078430220000001200208825637159074_" gradientUnits="userSpaceOnUse" x1="2015.3597" y1="2682.1582" x2="2023.0682" y2="2971.2305">
				<stop  offset="0" style="stop-color:#444B8C"/>
				<stop  offset="0.9964" style="stop-color:#26264F"/>
			</linearGradient>
			<path style="fill:url(#SVGID_00000172437506977078430220000001200208825637159074_);" d="M2287.852,2943.921
				c-40.69-13.34-71.103-47.474-79.679-89.428l-59.223-289.72l-494.761,17.801l-62.349,301.824
				c-8.732,42.27,14.372,84.658,54.629,100.227l211.955,81.97c39.422,15.246,81.798,21.319,123.916,17.757l447.939-37.877
				c13.094-1.107,23.598-11.282,25.122-24.334c1.524-13.052-6.354-25.373-18.841-29.467L2287.852,2943.921z"/>
			
				<linearGradient id="SVGID_00000163779345318687538590000001500979074734636475_" gradientUnits="userSpaceOnUse" x1="2078.2939" y1="2322.7852" x2="1228.8409" y2="-659.4609">
				<stop  offset="0" style="stop-color:#444B8C"/>
				<stop  offset="0.9964" style="stop-color:#26264F"/>
			</linearGradient>
			<path style="fill:url(#SVGID_00000163779345318687538590000001500979074734636475_);" d="M3097.682,2373.788V1058.155
				c0-26.978-22.234-49.944-49.479-51.039L787.921,916.256c-34.395-1.383-62.621,22.384-62.621,52.82v1453.974L3097.682,2373.788z"
				/>
			<g>
				
					<linearGradient id="SVGID_00000043455920855013237850000003434967736607297447_" gradientUnits="userSpaceOnUse" x1="2542.7073" y1="916.9179" x2="1438.5929" y2="2208.5234">
					<stop  offset="0" style="stop-color:#FFFFFF"/>
					<stop  offset="0.9964" style="stop-color:#EBEFF2"/>
				</linearGradient>
				<path style="fill:url(#SVGID_00000043455920855013237850000003434967736607297447_);" d="M2999.458,1072.829L852.168,992.72
					c-31.289-1.167-56.957,20.595-56.957,48.364v130.342v1135.761c0,28.349,26.205,50.799,58.144,49.89l2145.15-61.007
					c25.602-0.729,46.497-22.009,46.497-47.294V1235.808v-116.251C3045.001,1094.791,3024.534,1073.764,2999.458,1072.829z"/>
			</g>
			
				<linearGradient id="SVGID_00000022535645069329052200000007818457503484729012_" gradientUnits="userSpaceOnUse" x1="725.3006" y1="2565.7637" x2="3097.6816" y2="2565.7637">
				<stop  offset="0" style="stop-color:#444B8C"/>
				<stop  offset="0.9964" style="stop-color:#26264F"/>
			</linearGradient>
			<path style="fill:url(#SVGID_00000022535645069329052200000007818457503484729012_);" d="M725.301,2423.051v290.373
				c0,30.436,28.226,54.144,62.621,52.69l2260.281-95.556c27.246-1.152,49.479-24.164,49.479-51.142V2365.35L725.301,2423.051z"/>
			<g>
				
					<linearGradient id="SVGID_00000124152321008647068770000010382462653630026910_" gradientUnits="userSpaceOnUse" x1="3025.2869" y1="2366.2405" x2="2400.3499" y2="1340.3005">
					<stop  offset="0" style="stop-color:#311944"/>
					<stop  offset="1" style="stop-color:#893976"/>
				</linearGradient>
				<polygon style="fill:url(#SVGID_00000124152321008647068770000010382462653630026910_);" points="2972.92,2196.958 
					2383.3,2209.934 2383.3,1372 2972.92,1382.648 				"/>
				
					<linearGradient id="SVGID_00000090264966462565491170000010962069937199647163_" gradientUnits="userSpaceOnUse" x1="2207.5046" y1="845.8289" x2="1015.3953" y2="2458.3667">
					<stop  offset="0" style="stop-color:#FFC444"/>
					<stop  offset="0.9964" style="stop-color:#F36F56"/>
				</linearGradient>
				<polygon style="fill:url(#SVGID_00000090264966462565491170000010962069937199647163_);" points="2972.92,1339.778 
					883.534,1297.638 883.534,1107.425 2972.92,1167.296 				"/>
				
					<linearGradient id="SVGID_00000075133991321233780820000016065583706069789836_" gradientUnits="userSpaceOnUse" x1="1006.6595" y1="761.9639" x2="2345.4626" y2="2650.3833">
					<stop  offset="0.0036" style="stop-color:#E38DDD"/>
					<stop  offset="1" style="stop-color:#9571F6"/>
				</linearGradient>
				<polygon style="fill:url(#SVGID_00000075133991321233780820000016065583706069789836_);" points="2335.352,1846.568 
					883.534,1853.28 883.534,1344.916 2335.352,1371.134 				"/>
				
					<linearGradient id="SVGID_00000110442047590003007060000006097716950302400157_" gradientUnits="userSpaceOnUse" x1="595.3077" y1="1231.12" x2="1917.4482" y2="3383.561">
					<stop  offset="0" style="stop-color:#AA80F9"/>
					<stop  offset="0.9964" style="stop-color:#6165D7"/>
				</linearGradient>
				<polygon style="fill:url(#SVGID_00000110442047590003007060000006097716950302400157_);" points="1337.918,2232.941 
					883.534,2242.942 883.534,1900.557 1337.918,1897.498 				"/>
				
					<linearGradient id="SVGID_00000027596509303218914760000001259064904894880928_" gradientUnits="userSpaceOnUse" x1="1000.8143" y1="1035.7797" x2="2278.4082" y2="3115.6985">
					<stop  offset="0" style="stop-color:#AA80F9"/>
					<stop  offset="0.9964" style="stop-color:#6165D7"/>
				</linearGradient>
				<polygon style="fill:url(#SVGID_00000027596509303218914760000001259064904894880928_);" points="1848.225,2221.71 
					1414.923,2231.247 1414.923,1896.979 1848.225,1894.063 				"/>
				
					<linearGradient id="SVGID_00000114062898455132831870000012877697616474825099_" gradientUnits="userSpaceOnUse" x1="1390.0988" y1="853.2825" x2="2625.793" y2="2864.9888">
					<stop  offset="0" style="stop-color:#AA80F9"/>
					<stop  offset="0.9964" style="stop-color:#6165D7"/>
				</linearGradient>
				<polygon style="fill:url(#SVGID_00000114062898455132831870000012877697616474825099_);" points="2335.352,2210.99 
					1921.698,2220.093 1921.698,1893.568 2335.352,1890.783 				"/>
			</g>
			<g style="opacity:0.48;">
				<path style="fill:#FFFFFF;" d="M2852.866,2203.931c-185.641-62.702-339.223,65.194-472.663-35.507
					c-150.439-113.529-28.844-331.632-168.001-460.121c-193.312-178.493-579.787,98.32-747.641-69.955
					c-115.403-115.693,20.729-300.916-76.992-495.756c-49.686-99.067-142.789-166.605-255.803-212.514l-343.846-13.822
					c-34.394-1.383-62.619,22.384-62.619,52.82v1453.975v290.373c0,30.436,28.225,54.144,62.619,52.69l2260.281-95.557
					c27.247-1.152,49.48-24.164,49.48-51.141v-187.739C3018.083,2290.955,2930.214,2230.056,2852.866,2203.931z"/>
			</g>
		</g>
		<g>
			<g>
				
					<linearGradient id="SVGID_00000183216429847117623090000007339616563216483235_" gradientUnits="userSpaceOnUse" x1="2638.6624" y1="1460.3992" x2="3211.573" y2="2815.6265">
					<stop  offset="0" style="stop-color:#FF9085"/>
					<stop  offset="1" style="stop-color:#FB6FBB"/>
				</linearGradient>
				<path style="fill:url(#SVGID_00000183216429847117623090000007339616563216483235_);" d="M3196.585,1449.267l-685.325-12.376
					c-15.323-0.277-27.893,12.068-27.893,27.394v995.913c0,15.368,12.638,27.73,28.001,27.392l685.323-15.083
					c14.894-0.328,26.797-12.495,26.797-27.393v-968.454C3223.489,1461.722,3211.521,1449.536,3196.585,1449.267z"/>
				<g>
					<g>
						<path style="fill:#BFC8D6;" d="M2854.508,2227.325c-12.971,0.375-25.624-2.894-36.583-9.462
							c-33.39-20.015-82.727-53.07-127.113-96.338c-56.323-54.906-88.684-110.718-95.764-165.523l-0.111-0.859l-1.374-233.851
							c0-46.216,30.145-83.731,86.74-108.383c46.759-20.366,108.734-30.458,174.206-28.563
							c64.711,1.873,124.589,15.225,168.909,37.472c52.683,26.447,80.326,63.613,80.326,107.676l-1.253,223.447l-0.101,0.821
							c-6.47,52.481-36.245,106.729-88.87,161.586c-42.21,43.999-89.908,78.867-122.667,100.471
							C2880.016,2222.968,2867.45,2226.95,2854.508,2227.325z"/>
						
							<linearGradient id="SVGID_00000013880577027319325120000011396527031816746428_" gradientUnits="userSpaceOnUse" x1="2710.8674" y1="1598.6616" x2="3210.7083" y2="2416.1838">
							<stop  offset="0" style="stop-color:#FFFFFF"/>
							<stop  offset="0.9964" style="stop-color:#EBEFF2"/>
						</linearGradient>
						<path style="fill:url(#SVGID_00000013880577027319325120000011396527031816746428_);" d="M2867.35,2227.325
							c-12.8,0.375-25.286-2.894-36.1-9.462c-32.949-20.015-81.634-53.07-125.434-96.338
							c-55.578-54.906-87.512-110.718-94.498-165.523l-0.11-0.859l-1.356-233.851c0-46.216,29.746-83.731,85.593-108.383
							c46.142-20.366,107.297-30.458,171.905-28.563c63.855,1.873,122.943,15.225,166.677,37.472
							c51.988,26.447,79.265,63.613,79.265,107.676l-1.237,223.447l-0.101,0.821c-6.385,52.481-35.765,106.729-87.695,161.586
							c-41.653,43.999-88.72,78.867-121.046,100.471C2892.521,2222.968,2880.121,2226.95,2867.35,2227.325z"/>
						
							<linearGradient id="SVGID_00000091716566715810966420000005129030996051030714_" gradientUnits="userSpaceOnUse" x1="2975.9138" y1="2064.1265" x2="2569.9705" y2="1247.8583">
							<stop  offset="0" style="stop-color:#FFFFFF"/>
							<stop  offset="0.9964" style="stop-color:#EBEFF2"/>
						</linearGradient>
						<path style="fill:url(#SVGID_00000091716566715810966420000005129030996051030714_);" d="M2625.293,1721.46l1.365,232.669
							c15.316,118.714,154.832,214.829,215.595,251.346c17.407,10.461,39.662,9.841,56.946-1.532
							c59.495-39.149,191.37-137.708,205.46-251.847l1.251-222.831C3105.91,1563.944,2625.293,1548.83,2625.293,1721.46z"/>
						
							<linearGradient id="SVGID_00000170978385529049179910000012107892158152017573_" gradientUnits="userSpaceOnUse" x1="2671.3618" y1="1905.7716" x2="3063.3213" y2="1905.7716">
							<stop  offset="0" style="stop-color:#FF9085"/>
							<stop  offset="1" style="stop-color:#FB6FBB"/>
						</linearGradient>
						<path style="fill:url(#SVGID_00000170978385529049179910000012107892158152017573_);" d="M2870.798,2169.612
							c-1.114,0.026-2.799-0.159-4.502-1.191c-25.019-15.151-73.519-46.886-115.711-88.33
							c-45.574-44.767-71.858-88.292-77.886-129.17l-1.337-228.817c0.055-21.955,17.435-40.745,51.502-55.78
							c38.031-16.785,92.039-25.592,147.935-24.264c55.338,1.314,107.771,12.454,144.095,30.479
							c32.131,15.943,48.375,34.739,48.427,55.935l-1.246,220.895c-5.625,39.558-30.296,82.203-73.61,127.031
							c-40.727,42.15-88.302,75.563-113.168,91.81C2873.596,2169.32,2871.912,2169.586,2870.798,2169.612z"/>
						<path style="fill:#F4F7FA;" d="M2865.089,2153.972c-25.267-15.562-70.196-45.611-109.396-84.19
							c-42.829-42.151-67.615-82.598-73.441-120.024l-1.327-227.488c0.04-15.698,14.469-30.097,42.777-42.63
							c36.027-15.952,87.643-24.358,141.386-23.152c53.227,1.195,103.397,11.708,137.875,28.766
							c26.788,13.254,40.34,27.712,40.377,43.022l-1.243,220.082c-5.467,36.312-28.845,76.024-69.726,118.257
							C2934.415,2105.826,2890.241,2137.355,2865.089,2153.972z"/>
					</g>
					
						<linearGradient id="SVGID_00000104674988926989044900000004747782072193559228_" gradientUnits="userSpaceOnUse" x1="2931.5405" y1="1994.8516" x2="2687.3674" y2="1503.87">
						<stop  offset="0" style="stop-color:#FF9085"/>
						<stop  offset="1" style="stop-color:#FB6FBB"/>
					</linearGradient>
					<path style="fill:url(#SVGID_00000104674988926989044900000004747782072193559228_);" d="M2950.928,1733.556L2950.928,1733.556
						c-10.909,0-19.753,8.843-19.753,19.752v97.859c0,1.265-1.025,2.29-2.289,2.29c-1.265,0-2.29-1.025-2.29-2.29v-123.259
						c0-10.635-8.173-19.787-18.797-20.287c-11.343-0.534-20.706,8.504-20.706,19.729v123.817c0,1.265-1.026,2.29-2.291,2.29l0,0
						c-1.265,0-2.29-1.025-2.29-2.29v-134.655c0-10.635-8.173-19.787-18.797-20.287c-11.343-0.534-20.706,8.504-20.706,19.729
						v135.213c0,1.265-1.026,2.29-2.291,2.29l0,0c-1.265,0-2.29-1.025-2.29-2.29v-123.259c0-10.635-8.173-19.787-18.797-20.287
						c-11.343-0.534-20.707,8.504-20.707,19.729v202.707l-20.225-53.645c-5.244-14.656-21.791-22.421-36.969-17.294
						c-8.485,2.866-12.954,11.854-9.977,20.06l44.945,126.773c13.252,40.865,51.321,68.541,94.281,68.541h0.585
						c54.739,0,99.115-44.376,99.115-99.115v-55.042v-27.663v-139.365C2970.679,1742.398,2961.836,1733.556,2950.928,1733.556z"/>
				</g>
			</g>
			<g>
				
					<linearGradient id="SVGID_00000054245642168757295430000000067555573646554023_" gradientUnits="userSpaceOnUse" x1="3229.5027" y1="2200.8892" x2="3259.0771" y2="2411.0793">
					<stop  offset="0" style="stop-color:#FFC444"/>
					<stop  offset="0.9964" style="stop-color:#F36F56"/>
				</linearGradient>
				<path style="fill:url(#SVGID_00000054245642168757295430000000067555573646554023_);" d="M3213.853,2220.274v-40.431
					c0,0-5.812-8.632-8.864-30c-3.053-21.368,2.493-12.896,5.215-4.006c0.759,2.478,2.331,4.581,4.205,6.324
					c4.708,4.383,12.445,1.516,13.355-4.852l3.826-26.772c0,0,15.526,15.874,4.292,55.583c-3.517,12.43,0,42.42,0,42.42
					L3213.853,2220.274z"/>
				
					<linearGradient id="SVGID_00000124124318197390284030000013186510077105067685_" gradientUnits="userSpaceOnUse" x1="2502.5977" y1="2303.1665" x2="2532.1716" y2="2513.3538">
					<stop  offset="0" style="stop-color:#FFC444"/>
					<stop  offset="0.9964" style="stop-color:#F36F56"/>
				</linearGradient>
				<path style="fill:url(#SVGID_00000124124318197390284030000013186510077105067685_);" d="M2505.802,2252.453l-10.186-39.366
					c0,0,9.793-15.104,5.093-30.525c-4.701-15.421-1.875-9.929-5.665,0c-3.79,9.928-11.276-6.883-17.123-22.198
					c-5.846-15.315-8.845,8.229-7.419,22.198c1.426,13.97,1.953,22.284,10.296,32.478c8.343,10.194,6.671,46.446,6.671,46.446
					L2505.802,2252.453z"/>
				<path style="fill:#26264F;" d="M3083.834,3336.183c0.325-8.674,21.228-6.93,34.925-5.617
					c13.698,1.313,19.729,6.811,21.87,11.945c2.14,5.134,0.533,17.809-12.12,12.497
					C3118.122,3350.647,3083.546,3343.851,3083.834,3336.183z"/>
				
					<linearGradient id="SVGID_00000121996989623294992720000009349654877156877467_" gradientUnits="userSpaceOnUse" x1="3097.3701" y1="3240.9717" x2="3142.062" y2="3373.9834">
					<stop  offset="0" style="stop-color:#FFC444"/>
					<stop  offset="0.9964" style="stop-color:#F36F56"/>
				</linearGradient>
				<path style="fill:url(#SVGID_00000121996989623294992720000009349654877156877467_);" d="M3109.016,3302.58l9.743,33.603
					c0,0,9.75,6.697,12.952,3.365l-3.629-38.728L3109.016,3302.58z"/>
				
					<linearGradient id="SVGID_00000020373773729283493070000003484182717254512260_" gradientUnits="userSpaceOnUse" x1="3040.1304" y1="3260.6895" x2="3084.4917" y2="3392.7178">
					<stop  offset="0" style="stop-color:#FFC444"/>
					<stop  offset="0.9964" style="stop-color:#F36F56"/>
				</linearGradient>
				<polygon style="fill:url(#SVGID_00000020373773729283493070000003484182717254512260_);" points="3040.183,3282.697 
					3072.448,3296.771 3067.032,3313.097 3034.721,3304.693 				"/>
				<path style="fill:#26264F;" d="M3038.346,3346.058c0,0,21.5,5.562,31.009-7.142c6.115-8.168,11.204-22.043,14.057-30.908
					c1.55-4.814-0.885-9.984-5.583-11.857c-6.821-2.719-16.097-5.653-20.051-3.428c-6.615,3.721-0.414,28.453-3.308,34.899
					C3051.577,3334.067,3037.52,3338.202,3038.346,3346.058z"/>
				
					<linearGradient id="SVGID_00000088817756061769321550000009094038273342014345_" gradientUnits="userSpaceOnUse" x1="3220.697" y1="3172.7705" x2="3010.8606" y2="2936.1768">
					<stop  offset="0" style="stop-color:#444B8C"/>
					<stop  offset="0.9964" style="stop-color:#3E4177"/>
				</linearGradient>
				<path style="fill:url(#SVGID_00000088817756061769321550000009094038273342014345_);" d="M2988.208,2779.75
					c4.862,77.948,15.597,168.251,36.968,267.224c22.278,103.168,51.221,193.105,80.273,268.281
					c2.803,1.341,7.796,3.282,14.295,3.469c7.608,0.219,13.423-2.079,16.335-3.469c5.277-40.179,7.996-74.096,9.506-99.285
					c3.991-66.522,5.801-100.59-3.257-140.172c-8.5-37.143-15.332-34.244-24.205-75.297c-7.889-36.508-8.06-64.588-8.074-105.707
					c-0.01-28.233,1.283-66.365,6.737-111.613C3073.927,2782.038,3031.068,2780.893,2988.208,2779.75z"/>
				
					<linearGradient id="SVGID_00000108271263338792807920000007224063066918717339_" gradientUnits="userSpaceOnUse" x1="3220.697" y1="3172.7705" x2="3010.8606" y2="2936.1768">
					<stop  offset="0" style="stop-color:#444B8C"/>
					<stop  offset="0.9964" style="stop-color:#3E4177"/>
				</linearGradient>
				<path style="opacity:0.3;fill:url(#SVGID_00000108271263338792807920000007224063066918717339_);" d="M3109.674,3287.793
					c-8.543-27.513,8.301-40.079,6.337-74.991c-2.396-42.656-28.665-43.931-36.968-91.892c-6.671-38.542,9.572-41.871,5.281-88.723
					c-4.56-49.793-24.174-59.888-20.069-89.779c2.283-16.619,11.975-39.286,45.953-63.973c0.455-25.991,2.108-58.179,6.577-95.254
					c-42.859-1.142-85.718-2.287-128.578-3.431c4.862,77.948,15.597,168.251,36.968,267.224
					c22.278,103.168,51.221,193.105,80.273,268.281c2.803,1.341,7.796,3.282,14.295,3.469c3.449,0.1,6.466-0.351,9.074-0.968
					C3120.714,3309.899,3113.487,3300.072,3109.674,3287.793z"/>
				
					<linearGradient id="SVGID_00000147923767240881792890000003854512743081133478_" gradientUnits="userSpaceOnUse" x1="2956.8245" y1="3037.9114" x2="2647" y2="2980.1716">
					<stop  offset="0" style="stop-color:#444B8C"/>
					<stop  offset="0.9964" style="stop-color:#3E4177"/>
				</linearGradient>
				<path style="fill:url(#SVGID_00000147923767240881792890000003854512743081133478_);" d="M2883.642,2766.019
					c-1.56,18.785-4.621,47.225-11.197,81.381c-14.826,77.018-31.845,101.686-36.333,152.044
					c-5.233,58.722,10.801,104.941,16.9,122.522c41.634,120.013,155.956,175.874,186.209,189.555
					c3.416-11.078,6.833-22.156,10.249-33.234c-7.61-10.179-18.883-26.563-29.513-48.267
					c-18.149-37.057-19.368-58.888-31.748-95.379c-22.333-65.834-39.305-56.512-43.383-90.032
					c-6.462-53.123,36.405-74.571,75.069-176.136c11.081-29.103,17.557-53.603,21.125-68.654
					C2988.56,2788.552,2936.102,2777.285,2883.642,2766.019z"/>
				
					<linearGradient id="SVGID_00000144314762056930504360000001363617281605483185_" gradientUnits="userSpaceOnUse" x1="2808.4883" y1="2079.262" x2="3001.4246" y2="2787.6353">
					<stop  offset="0" style="stop-color:#AB316D"/>
					<stop  offset="1" style="stop-color:#792D3D"/>
				</linearGradient>
				<path style="fill:url(#SVGID_00000144314762056930504360000001363617281605483185_);" d="M3206.846,2204.109
					c10.915-1.76,21.829-3.521,32.743-5.281c13.704,19.274,53.187,80.198,45.417,161.602c-1.841,19.292-9.805,83.303-63.917,134.229
					c-38.745,36.464-81.82,47.924-101.559,51.875c-0.035,94.806,1.76,154.59,5.018,190.371c0.393,4.313,3.754,40.517-1.145,87.207
					c-1.492,14.228-2.278,21.422-4.225,25.35c-27.009,54.507-181.852,11.311-223.677-6.764c-10.875-4.7-21.921-11.237-26.647-22.81
					c-6.071-14.87-0.251-28.349,2.113-40.137c5.804-28.944-11.402-50.793-45.907-106.946
					c-14.59-23.745-35.777-59.392-60.522-105.668c-28.642,8.357-96.143,23.33-162.224-8.194
					c-97.099-46.322-152.508-174.612-124.262-313.641c9.859-2.816,19.717-5.633,29.574-8.45
					c6.525,26.979,19.104,63.307,44.873,99.948c15.635,22.23,28.655,40.742,51.244,51.093c35.469,16.251,66.969-0.25,113.016-11.619
					c72.558-17.913,133.227-11.229,206.926-3.107c80.516,8.873,102.582,25.411,161.452,14.292
					c26.184-4.945,58.962-11.564,85.798-37.591C3223.729,2298.669,3209.038,2215.522,3206.846,2204.109z"/>
				
					<linearGradient id="SVGID_00000083061986899919101640000011347964058830982810_" gradientUnits="userSpaceOnUse" x1="2896.6787" y1="2352.5366" x2="2931.5342" y2="2455.3425">
					<stop  offset="0" style="stop-color:#FFC444"/>
					<stop  offset="0.9964" style="stop-color:#F36F56"/>
				</linearGradient>
				<path style="fill:url(#SVGID_00000083061986899919101640000011347964058830982810_);" d="M2906.027,2310.049
					c0,0-4.828,19.326,1.973,27.988c6.8,8.661,29.51,41.858,36.903,43.479c4.212,0.924,14.765,2.521,23.067,3.724
					c4.37,0.633,5.297,6.648,1.247,8.406c-8.257,3.583-22.819,7.189-47.823,6.919c-36.143-0.39-65.214-14.142-77.888-21.267
					c-1.8-1.012-0.948-3.742,1.111-3.588l16.265,1.223c13.93,1.048,25.381-10.826,23.83-24.709l-1.01-9.041L2906.027,2310.049z"/>
				<g>
					<g>
						
							<linearGradient id="SVGID_00000100384449139749314460000014565171368721137060_" gradientUnits="userSpaceOnUse" x1="2821.2668" y1="3630.5586" x2="2856.1221" y2="3733.364" gradientTransform="matrix(1 0 0 1 514.5802 0)">
							<stop  offset="0" style="stop-color:#FFC444"/>
							<stop  offset="0.9964" style="stop-color:#F36F56"/>
						</linearGradient>
						<path style="fill:url(#SVGID_00000100384449139749314460000014565171368721137060_);" d="M2891.11,2348.955
							c-2.236-1.228-20.406-3.435-22.909-13.206c-3.401-13.263,8.52-29.406,10.005-32.004c6.217-10.875,7.78-12.344,10.672-14.187
							l4.012-2.352c0,0,0.232-0.088,0.475-0.168c2.561-0.846,11.225-0.914,12.97-0.5c5.576,1.323,11.026,24.285,8.594,56.518
							c0.205,1.234,0.401,2.479,0.589,3.735C2916.007,2350.053,2890.946,2350.104,2891.11,2348.955z"/>
						<path style="fill:#26264F;" d="M2874.021,2285.155c-0.787,3.94,9.643,11.785,14.102,15.173
							c0.542,0.412,2.11,1.801,3.531,4.037c0.207,0.326,0.387,0.706,0.544,1.194c2.047,6.35-8.138,13.539-6.268,16.403
							c1.356,2.08,8.227-0.504,8.996,1.281c0.725,1.68-5.011,4.996-4.189,7.008c0.62,1.518,4.134,0.22,6.277,2.576
							c1.067,1.169,0.726,2.073,1.806,5.607c0.612,1.997,1.481,4.189,2.163,5.413c3.323,5.948,13.06,8.314,14.996,6.007
							c0.54-0.643,0.102-1.202,0.686-3.387c0,0,0.542-2.026,2.013-4.346c2.1-3.32,7.041-5.616,12.051-9.055
							c9.28-6.368,11.888-11.915,12.676-13.793c0.089-0.21,0.166-0.405,0.235-0.582c0.134-0.317,0.249-0.637,0.347-0.957
							c1.96-6.397-6.163-17.51-6.163-17.51c-6.519-8.769-14.752-14.656-21.333-18.397c-12.036-2.368-21.837-2.069-28.625-1.319
							C2882.34,2281.123,2874.645,2282.036,2874.021,2285.155z"/>
						<path style="fill:#26264F;" d="M2870.27,2318.338c0,0,7.695,9.235,17.86-1.855l5.019,1.481c0,0-12.27,26.995-14.895,26.995
							s-10.287-1.746-10.287-1.746c-2.872-1.202-4.49-4.281-3.83-7.324C2865.342,2330.341,2868.494,2322.248,2870.27,2318.338z"/>
						
							<linearGradient id="SVGID_00000166662318536199479860000005304634657343945148_" gradientUnits="userSpaceOnUse" x1="3572.9351" y1="4252.9546" x2="3662.7141" y2="4397.6572" gradientTransform="matrix(1 0 0 1 514.5802 0)">
							<stop  offset="0" style="stop-color:#FFC444"/>
							<stop  offset="0.9964" style="stop-color:#F36F56"/>
						</linearGradient>
						<path style="fill:url(#SVGID_00000166662318536199479860000005304634657343945148_);" d="M2890.57,2319.695
							c2.526-3.312,6.76-0.051,6.688,4.306c-0.073,4.356-4.396,8.791-8.471,7.836
							C2884.709,2330.885,2887.171,2324.152,2890.57,2319.695z"/>
					</g>
				</g>
				
					<linearGradient id="SVGID_00000107582256012052899110000009394019534411655835_" gradientUnits="userSpaceOnUse" x1="2672.5093" y1="2116.2976" x2="2865.446" y2="2824.6733">
					<stop  offset="0" style="stop-color:#AB316D"/>
					<stop  offset="1" style="stop-color:#792D3D"/>
				</linearGradient>
				<path style="opacity:0.3;fill:url(#SVGID_00000107582256012052899110000009394019534411655835_);" d="M3077.987,2833.617
					c-52.456,18.486-113.592-8.543-128.859-45.417c-11.285-27.26,12.829-53.263-4.225-81.329
					c-16.422-27.026-46.08-14.917-66.542-42.249c-22.3-29.786,3.943-56.172-15.844-96.116
					c-14.886-30.051-50.531-57.096-85.554-57.036c-41.629,0.07-57.177,38.394-92.948,30.631
					c-18.685-4.053-18.251-15.338-44.362-33.799c-45.313-32.039-75.698-18.618-113.015-41.193
					c-10.966-6.635-23.203-16.807-34.587-33.158c22.292,56.618,60.863,101.425,110.262,124.992
					c66.081,31.524,133.582,16.551,162.224,8.194c24.745,46.276,45.932,81.923,60.522,105.668
					c34.505,56.153,51.711,78.002,45.907,106.946c-2.363,11.787-8.184,25.267-2.113,40.137c4.726,11.573,15.772,18.11,26.647,22.81
					c41.826,18.075,196.668,61.271,223.677,6.764c1.947-3.927,2.733-11.122,4.225-25.35c0.93-8.862,1.561-17.343,1.971-25.304
					C3114.58,2812.646,3099.337,2826.094,3077.987,2833.617z"/>
			</g>
		</g>
		<g>
			<g>
				<g>
					
						<linearGradient id="SVGID_00000041274914830453725850000015703930066522649005_" gradientUnits="userSpaceOnUse" x1="1297.17" y1="2539.0156" x2="1038.3141" y2="2567.2542">
						<stop  offset="0" style="stop-color:#444B8C"/>
						<stop  offset="0.9964" style="stop-color:#26264F"/>
					</linearGradient>
					<path style="fill:url(#SVGID_00000041274914830453725850000015703930066522649005_);" d="M1598.047,1868.09l166.096,1331.245
						c2.518,20.186-11.898,37.175-32.047,37.746l-665.74,25.607c-38.874-0.36-60.07-21.772-62.455-42.156L846.646,1876.376
						c-2.319-19.822,16.243-38.341,54.391-39.4l656.374-4.194C1577.316,1832.571,1595.597,1848.457,1598.047,1868.09z"/>
					
						<linearGradient id="SVGID_00000057137671245260726440000007555204348301511313_" gradientUnits="userSpaceOnUse" x1="1530.8247" y1="1870.5115" x2="901.4464" y2="4013.1797">
						<stop  offset="0" style="stop-color:#444B8C"/>
						<stop  offset="0.9964" style="stop-color:#26264F"/>
					</linearGradient>
					<path style="fill:url(#SVGID_00000057137671245260726440000007555204348301511313_);" d="M1628.904,1865.061l167.714,1340.749
						c2.543,20.333-11.984,37.441-32.294,38.013l-691.954,19.483c-20.669,0.582-39.559-15.745-41.966-36.274l-158.71-1353.569
						c-2.34-19.959,12.453-36.46,32.864-36.677l683.382-7.279C1608.001,1829.292,1626.431,1845.289,1628.904,1865.061z"/>
					
						<linearGradient id="SVGID_00000119826960705504113020000001012873297927176342_" gradientUnits="userSpaceOnUse" x1="1231.3567" y1="2935.7908" x2="1459.4697" y2="2133.064">
						<stop  offset="0.494" style="stop-color:#EBEFF2"/>
						<stop  offset="1" style="stop-color:#FFFFFF"/>
					</linearGradient>
					<path style="fill:url(#SVGID_00000119826960705504113020000001012873297927176342_);" d="M1615.401,1938.684l155.04,1241.753
						c2.367,18.959-11.192,34.907-30.141,35.434l-650.509,18.085c-19.263,0.535-36.87-14.685-39.118-33.816L903.466,1947.229
						c-2.19-18.638,11.604-34.063,30.644-34.284l643.045-7.451C1595.887,1905.277,1613.095,1920.209,1615.401,1938.684z"/>
					
						<linearGradient id="SVGID_00000129189145412788077520000015886873000504677807_" gradientUnits="userSpaceOnUse" x1="1271.0797" y1="1823.0231" x2="525.4885" y2="3842.3325">
						<stop  offset="0" style="stop-color:#311944"/>
						<stop  offset="1" style="stop-color:#893976"/>
					</linearGradient>
					<path style="fill:url(#SVGID_00000129189145412788077520000015886873000504677807_);" d="M1265.245,1873.09
						c0.836,6.887-4.174,12.536-11.191,12.615c-7.019,0.079-13.385-5.443-14.218-12.332c-0.834-6.888,4.179-12.535,11.195-12.612
						C1258.047,1860.684,1264.41,1866.203,1265.245,1873.09z"/>
					<g style="opacity:0.5;">
						<path style="fill:#FFFFFF;" d="M1500.687,2761.586c-133.577-245.211-328.695-320.003-386.429-564.37
							c-31.017-131.281-9.899-257.433,25.809-362.94l-235.51,2.508c-20.411,0.218-35.203,16.719-32.863,36.677l158.71,1353.569
							c2.407,20.529,21.297,36.855,41.967,36.273l538.406-15.159C1614.908,3029.352,1561.016,2872.333,1500.687,2761.586z"/>
					</g>
				</g>
			</g>
		</g>
		<g>
			
				<linearGradient id="SVGID_00000180342544607049966520000002721550991890092991_" gradientUnits="userSpaceOnUse" x1="812.8289" y1="1918.2635" x2="197.5585" y2="2898.0132" gradientTransform="matrix(1 0 0.1319 1.0009 533.9459 3.6298)">
				<stop  offset="0" style="stop-color:#FF9085"/>
				<stop  offset="1" style="stop-color:#FB6FBB"/>
			</linearGradient>
			<path style="fill:url(#SVGID_00000180342544607049966520000002721550991890092991_);" d="M1624.401,1946.693l-581.927,12.477
				c-27.215,0.583-46.359,23.197-42.759,50.508l92.776,703.953c3.6,27.312,28.578,48.976,55.793,48.387l581.913-12.58
				c27.206-0.588,46.344-23.202,42.745-50.51l-92.763-703.847C1676.582,1967.774,1651.608,1946.109,1624.401,1946.693z"/>
			<g>
				
					<linearGradient id="SVGID_00000063598918469536122890000014439208960256360353_" gradientUnits="userSpaceOnUse" x1="1585.1699" y1="2503.4636" x2="1239.0597" y2="3408.1497">
					<stop  offset="0.0036" style="stop-color:#E38DDD"/>
					<stop  offset="1" style="stop-color:#9571F6"/>
				</linearGradient>
				<path style="fill:url(#SVGID_00000063598918469536122890000014439208960256360353_);" d="M1778.702,2889.488
					c10.299-0.223,18.123-9.343,16.777-19.558l-7.21-54.711c-1.152-8.748-8.704-15.227-17.526-15.036l-645.648,13.965
					c-10.299,0.223-18.123,9.343-16.779,19.557l7.212,54.723c1.154,8.749,8.706,15.227,17.527,15.037L1778.702,2889.488z"/>
				
					<linearGradient id="SVGID_00000142880613623147486480000017698587989130637710_" gradientUnits="userSpaceOnUse" x1="1601.4592" y1="2626.9946" x2="1255.3326" y2="3531.7234">
					<stop  offset="0.0036" style="stop-color:#E38DDD"/>
					<stop  offset="1" style="stop-color:#9571F6"/>
				</linearGradient>
				<path style="fill:url(#SVGID_00000142880613623147486480000017698587989130637710_);" d="M1794.984,3013.027
					c10.3-0.223,18.123-9.343,16.777-19.557l-7.211-54.711c-1.152-8.748-8.704-15.227-17.527-15.036l-645.644,13.983
					c-10.3,0.223-18.123,9.344-16.777,19.558l7.212,54.724c1.152,8.749,8.706,15.228,17.528,15.036L1794.984,3013.027z"/>
				
					<linearGradient id="SVGID_00000049194493343762101080000005288088926229676731_" gradientUnits="userSpaceOnUse" x1="1617.7483" y1="2750.5256" x2="1271.6049" y2="3655.2983">
					<stop  offset="0.0036" style="stop-color:#E38DDD"/>
					<stop  offset="1" style="stop-color:#9571F6"/>
				</linearGradient>
				<path style="fill:url(#SVGID_00000049194493343762101080000005288088926229676731_);" d="M1828.043,3117.008l-7.211-54.711
					c-1.154-8.749-8.706-15.228-17.527-15.036l-645.643,14c-10.3,0.223-18.123,9.343-16.777,19.558l7.212,54.724
					c1.152,8.749,8.706,15.228,17.527,15.037l645.641-14.013C1821.565,3136.342,1829.389,3127.222,1828.043,3117.008z"/>
			</g>
			<g>
				<g>
					<path style="fill:#BFC8D6;" d="M1430.634,2682.352c-12.453,0.633-25.063-2.265-36.462-8.39
						c-34.73-18.665-86.492-49.61-134.787-90.539c-61.283-51.938-99.587-105.251-113.398-158.116l-0.216-0.829l-31.136-226.174
						c-5.892-44.705,18.38-81.616,69.784-106.633c42.469-20.667,100.912-31.71,164.253-31.231
						c62.601,0.473,122.007,12.148,167.553,32.749c54.14,24.489,85.515,59.864,91.132,102.481l27.275,216.14l0.007,0.797
						c0.454,50.894-21.322,103.98-65.04,158.132c-35.068,43.434-76.589,78.152-105.403,99.73
						C1454.66,2677.607,1443.059,2681.72,1430.634,2682.352z"/>
					
						<linearGradient id="SVGID_00000083057497694428523920000012537247944429674660_" gradientUnits="userSpaceOnUse" x1="406.7016" y1="2071.4636" x2="886.5071" y2="2856.217" gradientTransform="matrix(1 0 0.1319 1.0009 533.9459 3.6298)">
						<stop  offset="0" style="stop-color:#FFFFFF"/>
						<stop  offset="0.9964" style="stop-color:#EBEFF2"/>
					</linearGradient>
					<path style="fill:url(#SVGID_00000083057497694428523920000012537247944429674660_);" d="M1443.01,2682.084
						c-12.287,0.63-24.737-2.272-35.996-8.4c-34.305-18.675-85.438-49.633-133.167-90.574
						c-60.565-51.954-98.458-105.275-112.178-158.143l-0.215-0.829l-31.119-226.174c-5.892-44.704,17.996-81.608,68.679-106.608
						c41.874-20.654,99.527-31.68,162.034-31.184c61.776,0.491,120.42,12.182,165.401,32.796
						c53.469,24.503,84.492,59.885,90.109,102.503l27.29,216.14l0.008,0.797c0.537,50.892-20.86,103.969-63.909,158.107
						c-34.53,43.422-75.443,78.127-103.84,99.695C1466.711,2677.347,1455.269,2681.456,1443.01,2682.084z"/>
					
						<linearGradient id="SVGID_00000083049949928114295870000007622476496015589526_" gradientUnits="userSpaceOnUse" x1="661.0609" y1="2518.3928" x2="271.2251" y2="1734.5135" gradientTransform="matrix(1 0 0.1319 1.0009 533.9459 3.6298)">
						<stop  offset="0" style="stop-color:#FFFFFF"/>
						<stop  offset="0.9964" style="stop-color:#EBEFF2"/>
					</linearGradient>
					<path style="fill:url(#SVGID_00000083049949928114295870000007622476496015589526_);" d="M1145.237,2197.808l30.977,225.03
						c29.895,114.512,176.609,204.579,239.824,238.636c18.109,9.756,39.477,8.693,54.684-2.667
						c52.344-39.104,166.86-137.173,165.889-247.859l-27.198-215.545C1588.339,2035.505,1123.23,2030.825,1145.237,2197.808z"/>
					
						<linearGradient id="SVGID_00000157292316511251185220000010655897836916039325_" gradientUnits="userSpaceOnUse" x1="1231.6674" y1="2123.6531" x2="1662.9335" y2="2629.0864">
						<stop  offset="0" style="stop-color:#FF9085"/>
						<stop  offset="1" style="stop-color:#FB6FBB"/>
					</linearGradient>
					<path style="fill:url(#SVGID_00000157292316511251185220000010655897836916039325_);" d="M1438.976,2626.191
						c-1.07,0.048-2.718-0.095-4.491-1.059c-26.042-14.134-76.828-43.82-122.774-83.03c-49.63-42.354-80.511-83.909-91.531-123.324
						l-30.458-221.302c-2.745-21.238,11.609-39.773,42.526-55.021c34.513-17.022,85.441-26.659,139.478-26.532
						c53.498,0.126,105.446,9.815,142.749,26.497c32.996,14.755,51.045,32.598,53.797,53.097l26.957,213.674
						c-0.378,38.377-18.715,80.135-54.741,124.394c-33.875,41.615-75.462,74.921-97.355,91.155
						C1441.635,2625.851,1440.046,2626.143,1438.976,2626.191z"/>
					<path style="fill:#F4F7FA;" d="M1431.48,2611.182c-26.334-14.526-73.464-42.657-116.161-79.157
						c-46.65-39.881-75.694-78.49-86.081-114.57l-30.279-220.016c-1.963-15.184,10.108-29.411,35.794-42.121
						c32.688-16.176,81.362-25.375,133.309-25.32c51.448,0.054,101.136,9.184,136.535,24.969
						c27.505,12.265,42.407,25.968,44.394,40.775l26.856,212.89c-0.639,35.234-18.105,74.13-52.118,115.827
						C1492.151,2563.172,1453.601,2594.587,1431.48,2611.182z"/>
				</g>
				
					<linearGradient id="SVGID_00000009550933816602885720000013865413079585898150_" gradientUnits="userSpaceOnUse" x1="617.9229" y1="2450.8333" x2="383.2614" y2="1978.9773" gradientTransform="matrix(1 0 0.1319 1.0009 533.9459 3.6298)">
					<stop  offset="0" style="stop-color:#FF9085"/>
					<stop  offset="1" style="stop-color:#FB6FBB"/>
				</linearGradient>
				<path style="fill:url(#SVGID_00000009550933816602885720000013865413079585898150_);" d="M1460.61,2202.762L1460.61,2202.762
					c-10.513,0.226-17.908,8.962-16.517,19.514l12.474,94.652c0.161,1.223-0.696,2.236-1.914,2.262
					c-1.219,0.026-2.338-0.944-2.499-2.168l-15.713-119.219c-1.356-10.287-10.399-18.969-20.7-19.233
					c-10.999-0.281-18.871,8.655-17.44,19.512l15.783,119.76c0.161,1.224-0.696,2.237-1.915,2.263l0,0
					c-1.219,0.026-2.338-0.944-2.499-2.167l-17.165-130.242c-1.356-10.287-10.399-18.969-20.701-19.233
					c-10.999-0.281-18.871,8.654-17.44,19.512l17.236,130.783c0.161,1.223-0.697,2.237-1.916,2.263l0,0
					c-1.219,0.026-2.338-0.944-2.499-2.167l-15.713-119.222c-1.356-10.287-10.399-18.969-20.701-19.233
					c-11-0.282-18.872,8.655-17.441,19.512l25.84,196.068l-26.33-51.468c-6.923-14.068-23.859-21.235-37.834-15.961
					c-7.812,2.948-10.973,11.735-7.059,19.61l59.477,121.69c17.981,39.251,58.197,65.23,99.599,64.337l0.563-0.012
					c52.752-1.138,89.859-44.981,82.881-97.926l-7.016-53.238l-3.526-26.756l-17.766-134.796
					C1480.771,2210.905,1471.122,2202.536,1460.61,2202.762z"/>
			</g>
		</g>
	</g>
</g>
</svg>
