<svg xmlns="http://www.w3.org/2000/svg" viewBox="0 0 750 500" style="enable-background:new 0 0 750 500" xml:space="preserve"><path style="fill:none;stroke:#ebebeb;stroke-miterlimit:10" d="M118.059 62.165h125.639v85.639H118.059z"/><path style="fill:#a6a6a6" d="M127.461 67.247a2.521 2.521 0 1 1-5.043 0 2.521 2.521 0 0 1 5.043 0z"/><path style="fill:#ebebeb" d="M137.753 67.247a2.52 2.52 0 1 1-5.041 0 2.52 2.52 0 0 1 5.041 0z"/><path style="fill:#ffc727" d="M148.046 67.247a2.52 2.52 0 1 1-5.042 0 2.52 2.52 0 0 1 5.042 0z"/><path style="fill:none;stroke:#ebebeb;stroke-miterlimit:10" d="M118.059 72.184h125.639M658.011 375.214V249.552l26.731-36.483v-68.335"/><path style="fill:none;stroke:#ebebeb;stroke-miterlimit:10" d="M682.367 142.4a2.375 2.375 0 1 0 4.75 0 2.375 2.375 0 0 0-4.75 0zM664.896 375.214V253.959l26.73-36.482v-47.746"/><path style="fill:none;stroke:#ebebeb;stroke-miterlimit:10" d="M689.251 167.397a2.375 2.375 0 1 0 4.75 0 2.375 2.375 0 0 0-4.75 0zM651.378 375.214v-166.41M649.003 206.429a2.375 2.375 0 1 0 4.75 0 2.375 2.375 0 0 0-4.75 0zM644.993 375.214V290.64l-18.148-34.23v-61.364"/><path style="fill:none;stroke:#ebebeb;stroke-miterlimit:10" d="M624.47 192.671a2.375 2.375 0 1 0 4.75 0 2.375 2.375 0 0 0-4.75 0zM638.644 375.214v-80.917l-21.395-37.841v-40.415"/><path style="fill:none;stroke:#ebebeb;stroke-miterlimit:10" d="M614.874 213.665a2.375 2.375 0 1 0 4.75 0 2.375 2.375 0 0 0-4.75 0zM95.598 375.214v-65.662l-26.731-36.483v-38.335"/><path style="fill:none;stroke:#ebebeb;stroke-miterlimit:10" d="M71.242 232.4a2.375 2.375 0 1 1-4.75 0 2.375 2.375 0 0 1 4.75 0zM88.713 375.214v-61.255l-26.73-36.482v-17.746"/><path style="fill:none;stroke:#ebebeb;stroke-miterlimit:10" d="M64.358 257.397a2.375 2.375 0 1 1-4.75 0 2.375 2.375 0 0 1 4.75 0zM102.231 375.214v-106.41M104.606 266.429a2.375 2.375 0 1 1-4.75 0 2.375 2.375 0 0 1 4.75 0zM108.616 375.214V320.64l18.148-34.23v-61.364"/><path style="fill:none;stroke:#ebebeb;stroke-miterlimit:10" d="M129.139 222.671a2.375 2.375 0 1 1-4.75 0 2.375 2.375 0 0 1 4.75 0zM114.965 375.214v-50.917l21.395-37.841v-40.415"/><path style="fill:none;stroke:#ebebeb;stroke-miterlimit:10" d="M138.735 243.665a2.375 2.375 0 1 1-4.75 0 2.375 2.375 0 0 1 4.75 0z"/><path style="fill:#ebebeb" d="m685.953 127.751 6.979-11.251-3.446-2.135c-1.013-.628-1.563-1.774-1.461-2.961.056-.657.077-1.317.063-1.979-.026-1.189.595-2.295 1.643-2.857l3.572-1.915-6.26-11.672-3.571 1.915c-1.048.562-2.313.467-3.289-.212a18.315 18.315 0 0 0-1.684-1.043c-1.046-.572-1.696-1.664-1.659-2.855l.128-4.052-13.234-.411-.122 4.066c-.036 1.192-.766 2.23-1.845 2.739a19.178 19.178 0 0 0-1.718.921c-1.016.614-2.278.649-3.287.024l-3.471-2.15-6.979 11.251 3.452 2.143c1.013.629 1.561 1.776 1.458 2.964a18.499 18.499 0 0 0-.065 1.971 3.146 3.146 0 0 1-1.643 2.854l-3.573 1.916 6.26 11.672 3.573-1.916a3.147 3.147 0 0 1 3.286.21c.542.376 1.102.722 1.678 1.037 1.047.571 1.699 1.663 1.662 2.855l-.125 4.061 13.234.411.126-4.063c.037-1.188.766-2.222 1.841-2.73a18.936 18.936 0 0 0 1.724-.925c1.021-.617 2.29-.652 3.304-.023l3.449 2.14zm-11.205-8.356c-5.278 2.831-11.846.848-14.677-4.43-2.831-5.278-.853-11.855 4.425-14.686 5.278-2.831 11.86-.844 14.691 4.434 2.831 5.279.84 11.852-4.439 14.682zM77.185 227.757l8.034-4.636-1.421-2.459a2.204 2.204 0 0 1 .078-2.312c.252-.387.484-.788.694-1.201a2.204 2.204 0 0 1 1.96-1.22h2.839v-9.278H86.53a2.204 2.204 0 0 1-1.96-1.22c-.21-.414-.442-.815-.694-1.201a2.204 2.204 0 0 1-.078-2.312l1.421-2.459-8.034-4.636-1.422 2.47c-.417.724-1.212 1.123-2.046 1.08a14.087 14.087 0 0 0-1.366 0c-.831.043-1.622-.353-2.038-1.073l-1.431-2.477-8.034 4.636 1.422 2.466a2.206 2.206 0 0 1-.081 2.313c-.251.385-.483.784-.693 1.196a2.204 2.204 0 0 1-1.959 1.218h-2.84v9.278h2.84c.832 0 1.581.477 1.959 1.218.21.412.441.811.693 1.195.457.699.498 1.589.081 2.313l-1.422 2.466 8.034 4.636 1.423-2.467c.416-.721 1.209-1.118 2.04-1.076a14.23 14.23 0 0 0 1.371 0c.835-.043 1.63.355 2.047 1.08l1.422 2.462zm-4.151-8.868a7.592 7.592 0 0 1-7.594-7.594c0-4.196 3.398-7.602 7.594-7.602s7.602 3.406 7.602 7.602c-.001 4.195-3.406 7.594-7.602 7.594zM645.081 135.893l-4.636-8.034-2.459 1.421a2.204 2.204 0 0 1-2.312-.078 12.999 12.999 0 0 0-1.201-.694 2.203 2.203 0 0 1-1.22-1.96v-2.839h-9.279v2.839c0 .833-.477 1.583-1.22 1.96-.414.21-.815.442-1.201.694a2.204 2.204 0 0 1-2.312.078l-2.459-1.421-4.636 8.034 2.47 1.422c.724.417 1.123 1.212 1.08 2.046a12.919 12.919 0 0 0 0 1.366c.043.831-.353 1.622-1.073 2.038l-2.477 1.431 4.636 8.034 2.466-1.422a2.204 2.204 0 0 1 2.312.081c.385.251.784.483 1.196.692a2.204 2.204 0 0 1 1.218 1.959v2.84h9.279v-2.84c0-.832.477-1.581 1.218-1.959.412-.21.811-.441 1.195-.692a2.206 2.206 0 0 1 2.313-.081l2.466 1.422 4.636-8.034-2.466-1.423c-.722-.416-1.118-1.208-1.076-2.04a14.23 14.23 0 0 0 0-1.371c-.043-.835.355-1.63 1.079-2.047l2.463-1.422zm-8.868 4.151a7.592 7.592 0 0 1-7.595 7.594c-4.196 0-7.602-3.398-7.602-7.594a7.605 7.605 0 0 1 7.602-7.602c4.196 0 7.595 3.406 7.595 7.602z"/><path style="fill:#ffc727" d="M98.496 299.074c-6.388-13.132-17.568-19.875-30.168-16.148-12.599 3.727-14.551 21.295-5.146 25.731s18.81-8.518 23.779-11.18c4.969-2.662 11.535 1.597 11.535 1.597z"/><path style="fill:#263238" d="M104.681 334.029c-.033-1.583-.094-3.165-.15-4.748-.112-3.161-.218-6.321-.336-9.482-.215-5.78-.837-11.456-3.232-16.784-2.148-4.779-5.628-8.964-10.134-11.679a21.335 21.335 0 0 0-5.327-2.298c-1.558-1.745-3.994-2.875-6.217-3.415-2.913-.708-5.908-.553-8.863-.222-.106.012-.102.18.004.167 2.798-.342 5.666-.173 8.385.597 1.165.33 2.303.752 3.378 1.314.695.363 1.33.791 1.954 1.239-2.519-.507-5.126-.523-7.7.074-.916.212-1.803.525-2.672.882-.675-.175-1.429-.193-2.099-.178-.919.02-1.838.167-2.729.389-1.836.458-3.551 1.328-5.183 2.264-.093.053-.006.193.088.142a19.316 19.316 0 0 1 5.058-1.906 17.014 17.014 0 0 1 2.6-.381c.484-.033.967-.01 1.449.012-3.544 1.672-6.525 4.516-8.148 8.118-.044.098.103.179.146.081 1.889-4.27 5.919-7.186 10.382-8.322.278-.071.562-.108.843-.163-.098.408-.082.875-.134 1.271a27.251 27.251 0 0 1-.32 1.906 32.3 32.3 0 0 1-1.025 3.844 30.406 30.406 0 0 1-1.526 3.728c-.606 1.229-1.244 2.541-2.13 3.596-.077.092.068.2.133.098.756-1.186 1.637-2.278 2.328-3.511a26.364 26.364 0 0 0 1.709-3.666 25.03 25.03 0 0 0 1.454-6.072c.048-.414.146-.882.079-1.303a17.224 17.224 0 0 1 4.474-.091c-.559 3.132-1.16 6.397-2.915 9.117-.058.09.095.176.146.081.784-1.474 1.584-2.908 2.165-4.48.548-1.486.972-3.078 1.08-4.667 2.597.338 5.138 1.211 7.397 2.481 4.362 2.453 7.67 6.301 9.848 10.774 2.366 4.858 3.316 10.086 3.651 15.443.42 6.712.507 13.465 1.177 20.157.044.437.737.584.821.091.252-1.485.122-3.003.091-4.498zM89.916 290.283c-.355-.522-.969-.94-1.452-1.34a21.043 21.043 0 0 0-1.622-1.233 12.046 12.046 0 0 0-3.63-1.683c-.104-.028-.145.139-.04.162 1.314.284 2.507.972 3.583 1.761a23.73 23.73 0 0 1 1.546 1.247c.464.404.923.95 1.465 1.245.096.051.215-.063.15-.159z"/><path style="fill:#263238" d="M69.526 295.043c-1.026 1.248-2.068 2.508-2.93 3.877-.865 1.375-1.612 2.797-2.18 4.321-.017.045.055.07.077.03 1.549-2.786 3.105-5.656 5.153-8.113.069-.082-.052-.198-.12-.115zM83.271 293.743a9.445 9.445 0 0 1-.722 2.376c-.337.733-.771 1.433-1.216 2.105-.029.044.038.091.073.054 1.135-1.209 1.77-2.873 2.027-4.494.016-.106-.145-.147-.162-.041z"/><path style="fill:#ffc727" d="M103.789 299.397s9.046-11.369 26.506-7.339c16.595 3.83 24.254 34.26 7.485 37.901-16.769 3.641-13.813-24.519-19.924-29.298-4.484-3.506-10.933-2.752-14.067-1.264z"/><path style="fill:#263238" d="M143.78 308.677c-1.145-.986-2.33-1.932-3.597-2.757-1.186-.772-2.474-1.495-3.836-1.915a23.155 23.155 0 0 0-2.276-2.928 22.516 22.516 0 0 0-5.276-4.202c.173-.01.346-.029.52-.035.928-.03 1.848-.036 2.776.028 1.875.13 3.675.564 5.388 1.342.098.044.17-.109.071-.151-1.721-.731-3.537-1.302-5.38-1.621a15.294 15.294 0 0 0-2.727-.234c-.49.005-.98.038-1.467.085-.091.009-.185.014-.28.022a23.454 23.454 0 0 0-5.033-1.851c.162-.043.322-.094.486-.132a24.064 24.064 0 0 1 2.588-.425 20.302 20.302 0 0 1 5.224.08c.106.015.136-.151.03-.164-1.742-.214-3.526-.282-5.28-.214-1.438.056-2.964.217-4.392.569a23.205 23.205 0 0 0-3.184-.363c-6.087-.257-12.724 2.019-16.471 7.021-3.76 5.019-4.482 11.69-5.145 17.733-.922 8.411-1.344 16.939-.668 25.378.04.5.741.408.756-.066.229-7.175.481-14.352 1.168-21.502.318-3.31.671-6.634 1.221-9.915.471-2.804 1.141-5.604 2.407-8.165a14.94 14.94 0 0 1 5.892-6.336c2.534-1.489 5.429-2.314 8.347-2.568 2.65-.23 5.298.045 7.833.734-.112.502-.088 1.028-.044 1.545a8.69 8.69 0 0 0 .383 1.908c.187.586.439 1.153.73 1.694.323.6.73 1.134 1.09 1.708.057.091.203-.012.136-.096-.753-.946-1.138-2.27-1.354-3.442a13.651 13.651 0 0 1-.209-1.78c-.023-.45.016-.903-.005-1.351a23.083 23.083 0 0 1 7.622 4.024c.425.34.834.7 1.235 1.069-.597.489-1.078 1.226-1.48 1.818a17.91 17.91 0 0 0-1.553 2.765c-.853 1.918-1.305 4.005-1.615 6.073-.016.106.149.136.164.03.282-2.044 1.033-3.935 1.987-5.756.462-.881.976-1.743 1.547-2.557.295-.42.599-.836.917-1.238.171-.216.358-.436.521-.669 2.044 2 3.735 4.377 4.951 6.973-.011.006-.022.006-.032.015-.862.803-1.474 1.92-2.046 2.94a27.477 27.477 0 0 0-1.635 3.494c-.896 2.309-1.486 4.72-2.083 7.12-.026.104.143.136.164.03.482-2.447 1.408-4.765 2.477-7.012a65.153 65.153 0 0 1 1.653-3.235c.546-1 1.214-1.991 1.64-3.052 1.152 2.551 1.854 5.298 1.992 8.087.005.107.175.093.166-.015-.348-4.35-1.64-8.68-3.919-12.411 1.068.455 2.139.894 3.166 1.448 1.308.705 2.537 1.542 3.631 2.55.08.075.19-.055.108-.125z"/><path style="fill:#263238" d="M130.975 309.322c-.524 1.724-1.183 3.397-1.655 5.139-.454 1.673-.769 3.395-.771 5.133 0 .047.076.05.083.004.512-3.45 1.269-6.954 2.501-10.225.042-.113-.122-.168-.158-.051zM142.036 305.045c-.695-.656-1.455-1.223-2.312-1.652-.852-.426-1.77-.673-2.677-.947-.101-.03-.136.14-.03.164.911.204 1.756.626 2.576 1.06a19.27 19.27 0 0 1 2.373 1.457c.056.042.121-.034.07-.082z"/><path style="fill:#ffc727" d="M112.387 284.213s1.669-20.425 16.854-27.045c12.68-5.528 19.939 8.72 10.975 17.442-7.251 7.055-18.879 3.871-27.829 9.603z"/><path style="fill:#263238" d="M137.408 261.124c-2.299.981-4.578 1.954-6.753 3.197a50.411 50.411 0 0 0-5.243 3.48c.252-.516.471-1.057.725-1.561a28.16 28.16 0 0 1 1.29-2.309c.965-1.538 2.028-2.977 3.345-4.234.077-.074-.046-.192-.121-.115-1.254 1.284-2.49 2.625-3.521 4.098a24.385 24.385 0 0 0-1.443 2.311c-.396.727-.844 1.533-1.02 2.352-.054.043-.113.079-.168.122-2.664 2.099-5.07 4.503-7.253 7.096a8.25 8.25 0 0 1 .137-.585c.284-.997.592-1.984.92-2.968.69-2.068 1.539-4.132 2.743-5.957.059-.089-.09-.173-.146-.081-1.149 1.893-2.299 3.77-3.178 5.809a22.093 22.093 0 0 0-1.049 3.019c-.164.611-.428 1.351-.494 2.052a56.174 56.174 0 0 0-1.925 2.557c-6.518 9.279-9.791 20.505-10.576 31.735a97.334 97.334 0 0 0-.169 10.062c.113 3.358.235 6.794.89 10.098.042.211.372.148.367-.059-.076-2.951-.381-5.889-.438-8.843-.057-2.957.047-5.92.285-8.867a82.505 82.505 0 0 1 3.311-17.38c1.76-5.761 4.362-11.309 7.722-16.338.64-.127 1.274-.301 1.903-.463.758-.195 1.517-.389 2.271-.601 1.45-.406 2.889-.866 4.234-1.552.095-.048.006-.197-.088-.142-1.325.776-2.797 1.183-4.294 1.481-1.188.237-2.423.391-3.613.664a57.265 57.265 0 0 1 3.531-4.64c2.885.281 5.824.026 8.639-.645a34.856 34.856 0 0 0 4.421-1.377c1.521-.586 2.961-1.339 4.462-1.966.112-.047.035-.213-.068-.151-2.576 1.564-5.812 2.366-8.757 2.866-2.717.462-5.444.63-8.192.677 1.079-1.237 2.193-2.443 3.382-3.576 3.988-3.798 8.726-7.289 13.978-9.108.104-.034.05-.2-.047-.158z"/><path style="fill:#263238" d="M125.051 261.187a22.933 22.933 0 0 0-1.862 2.723c-.581 1.008-1.004 2.056-1.34 3.167-.011.036.045.058.062.024.506-1.002.934-2.041 1.447-3.039a15.168 15.168 0 0 1 1.813-2.761c.07-.082-.054-.198-.12-.114zM139.171 267.986c-.985.571-2.033.951-3.113 1.299-1.041.336-2.098.638-3.171.851-.05.01-.037.096.014.09 1.118-.132 2.219-.348 3.283-.719 1.058-.369 2.071-.884 3.074-1.379.095-.047.007-.196-.087-.142z"/><path style="fill:#ffc727" d="M100.583 280.537c-.095.882-2.297-7.415-15.136-14.782-11.66-6.69-25.577-24.09-14.144-35.083 9.228-8.873 33.539 10.47 29.28 49.865z"/><path style="fill:#263238" d="M109.421 328.11a227.566 227.566 0 0 0-2.037-25.815c-1.077-7.869-2.772-15.613-5.425-23.107-.956-2.7-2.046-5.357-3.231-7.972.123-.996-.007-2.093-.053-3.055a89.954 89.954 0 0 0-.301-3.915c-.12-1.304-.252-2.607-.408-3.907-.155-1.29-.431-2.597-.484-3.894-.005-.119-.192-.094-.163.026.313 1.332.355 2.771.461 4.133a80.89 80.89 0 0 1 .209 3.782c.039 1.263.032 2.527.034 3.791 0 .456-.024.94-.042 1.426a108.915 108.915 0 0 0-3.902-7.509c.869-5.324-.259-10.888-1.347-16.092-.022-.105-.182-.056-.16.048.567 2.711.784 5.485.847 8.25.049 2.186-.053 4.372-.061 6.557-.309-.523-.615-1.048-.932-1.566a117.121 117.121 0 0 0-5.333-7.969c.205-1.243.058-2.561-.124-3.791a29.411 29.411 0 0 0-.931-4.147 42.943 42.943 0 0 0-1.421-4.008c-.556-1.35-1.297-2.627-1.833-3.982-.045-.113-.213-.036-.151.068.728 1.218 1.174 2.682 1.608 4.028.421 1.307.78 2.647 1.05 3.994.271 1.352.494 2.706.683 4.072.126.903.205 1.839.361 2.752-2.762-3.688-5.75-7.208-8.99-10.462-.077-.077-.185.042-.115.121 4.874 5.537 9.284 11.408 13.054 17.757.14.237.274.477.413.715-.707-.444-1.519-.795-2.184-1.165a357.687 357.687 0 0 0-3.744-2.055 375.913 375.913 0 0 1-3.637-1.991c-.623-.345-1.236-.705-1.87-1.029-.719-.368-1.528-.72-2.176-1.206-.098-.073-.202.076-.098.133 1.235.679 2.328 1.689 3.521 2.45a71.902 71.902 0 0 0 3.666 2.198c2.283 1.274 4.762 2.189 7.008 3.506a112.674 112.674 0 0 1 4.321 8.378 81.995 81.995 0 0 0-4.17-2.496c-.91-.51-1.822-1.012-2.745-1.497-.891-.468-1.816-.903-2.586-1.563-.081-.069-.192.045-.115.121 1.453 1.422 3.189 2.413 4.933 3.432 1.649.964 3.316 1.894 5.031 2.735a111.727 111.727 0 0 1 3.716 9.188c5.404 15.302 7.39 31.546 8.338 47.679.283 4.811.429 9.617.489 14.434.06 4.811-.194 9.614-.185 14.422 0 .142.235.175.255.028.577-4.265.678-8.603.865-12.899.185-4.367.188-8.76.091-13.132z"/><path style="fill:#263238" d="M86.094 258.836c-2.359-.968-4.606-2.274-6.823-3.529a71.945 71.945 0 0 1-6.478-4.112c-.034-.025-.077.033-.044.06 1.973 1.581 4.046 3.058 6.221 4.35 2.258 1.341 4.643 2.33 7.044 3.377.098.044.179-.105.08-.146zM89.814 241.539c-.19-.747-.426-1.48-.677-2.208.028-.018.048-.046.032-.085-.162-.414-.333-.824-.501-1.235a1.55 1.55 0 0 0-.06-.148l-.096-.236c-.01-.026-.051-.015-.042.012.046.141.081.285.125.426.022.081.036.154.069.236.874 2.85 1.454 5.772 1.903 8.717.014.092.156.096.15-.004-.111-1.852-.445-3.677-.903-5.475z"/><path style="fill:#37474f" d="m122.986 331.213-.915 10.859-2.805 33.118H89.224l-2.805-33.118-.915-10.859z"/><path style="fill:#263238" d="m122.986 331.213-.915 10.859H86.419l-.915-10.859z"/><path style="fill:#37474f" d="M82.556 326.855h43.379v10.418H82.556z"/><path style="fill:#263238" d="m50.72 375.19 81.07-.243 81.07-.088 162.14-.168 162.14.167 81.07.088 81.07.244-81.07.245-81.07.088-162.14.166-162.14-.167-81.07-.088z"/><path style="fill:#ebebeb" d="M138.365 84.078h471.589v315.459H138.365z"/><path style="fill:#263238" d="M141.792 87.926h464.735v307.763H141.792z"/><path style="fill:#dbdbdb" d="M76.943 423.191h594.433v21.651H76.943z"/><path style="fill:#ebebeb" d="m76.943 423.191 61.422-23.655h471.589l61.422 23.655z"/><path style="fill:#263238" d="m143.85 414.802 39.636-15.266h381.346l39.637 15.266z"/><path style="fill:#fff" d="M168.055 111.308h412.208v260.998H168.055z"/><path style="fill:#455a64" d="M167.707 111.308h412.557v10.043H167.707z"/><path style="fill:#c7c7c7" d="M175.689 116.33a2.49 2.49 0 1 1-4.981 0 2.49 2.49 0 0 1 4.981 0z"/><path style="fill:#fff" d="M185.86 116.33a2.49 2.49 0 1 1-4.981 0 2.49 2.49 0 0 1 4.981 0z"/><path style="fill:#ffc727" d="M196.031 116.33a2.49 2.49 0 1 1-4.981 0 2.49 2.49 0 0 1 4.981 0z"/><path style="fill:#dbdbdb" d="M572.945 121.351h7.318v250.955h-7.318z"/><path style="fill:#a6a6a6" d="M576.6 208.354a1.89 1.89 0 0 1-1.89-1.89V124.71a1.89 1.89 0 1 1 3.78 0v81.754a1.89 1.89 0 0 1-1.89 1.89z"/><path style="fill:#fff" d="M227.418 186.435h295.164v44.738H227.418z"/><path style="fill:#dbdbdb" d="M523.082 231.673H226.918v-45.738h296.164v45.738zm-295.164-1h294.164v-43.738H227.918v43.738z"/><path style="fill:#37474f" d="M253.478 198.559c.621 1.708.943 3.415 1.175 5.122.22 1.708.322 3.415.324 5.122.002 1.708-.1 3.415-.32 5.122-.231 1.707-.555 3.415-1.179 5.122-.625-1.708-.948-3.415-1.179-5.122a39.664 39.664 0 0 1-.32-5.122c.002-1.708.104-3.415.324-5.122.232-1.706.554-3.414 1.175-5.122z"/><path style="fill:#37474f" d="M263.723 208.804c-1.707.621-3.415.943-5.122 1.175-1.708.22-3.415.322-5.122.324-1.707.002-3.415-.1-5.122-.32-1.707-.232-3.415-.555-5.122-1.18 1.707-.625 3.415-.948 5.122-1.179a39.675 39.675 0 0 1 5.122-.32c1.707.002 3.415.104 5.122.324 1.707.233 3.415.556 5.122 1.176z"/><path style="fill:#37474f" d="M260.723 201.56c-.768 1.646-1.748 3.081-2.791 4.453a40.317 40.317 0 0 1-3.393 3.851 39.78 39.78 0 0 1-3.848 3.396c-1.371 1.044-2.807 2.023-4.456 2.788.766-1.649 1.744-3.085 2.788-4.456a39.544 39.544 0 0 1 3.396-3.848 40.44 40.44 0 0 1 3.851-3.393c1.371-1.043 2.806-2.022 4.453-2.791z"/><path style="fill:#37474f" d="M260.723 216.049c-1.646-.769-3.082-1.748-4.453-2.791a40.317 40.317 0 0 1-3.851-3.393 39.78 39.78 0 0 1-3.396-3.848c-1.044-1.371-2.023-2.807-2.788-4.456 1.649.766 3.085 1.744 4.456 2.788a39.544 39.544 0 0 1 3.848 3.396 40.44 40.44 0 0 1 3.393 3.851c1.042 1.371 2.022 2.806 2.791 4.453zM293.416 198.559c.621 1.708.943 3.415 1.175 5.122.22 1.708.322 3.415.324 5.122.002 1.708-.1 3.415-.32 5.122-.232 1.707-.555 3.415-1.18 5.122-.625-1.708-.948-3.415-1.179-5.122a39.664 39.664 0 0 1-.32-5.122c.002-1.708.104-3.415.324-5.122.233-1.706.556-3.414 1.176-5.122z"/><path style="fill:#37474f" d="M303.661 208.804c-1.708.621-3.415.943-5.123 1.175-1.707.22-3.415.322-5.122.324-1.707.002-3.415-.1-5.122-.32-1.708-.232-3.415-.555-5.122-1.18 1.707-.625 3.415-.948 5.122-1.179a39.664 39.664 0 0 1 5.122-.32c1.707.002 3.415.104 5.122.324 1.708.233 3.416.556 5.123 1.176z"/><path style="fill:#37474f" d="M300.661 201.56c-.768 1.646-1.748 3.081-2.791 4.453a40.317 40.317 0 0 1-3.393 3.851 39.78 39.78 0 0 1-3.848 3.396c-1.371 1.044-2.807 2.023-4.456 2.788.766-1.649 1.745-3.085 2.788-4.456a39.544 39.544 0 0 1 3.396-3.848 40.44 40.44 0 0 1 3.851-3.393c1.371-1.043 2.806-2.022 4.453-2.791z"/><path style="fill:#37474f" d="M300.661 216.049c-1.646-.769-3.082-1.748-4.453-2.791a40.317 40.317 0 0 1-3.851-3.393 39.78 39.78 0 0 1-3.396-3.848c-1.044-1.371-2.022-2.807-2.788-4.456 1.649.766 3.085 1.744 4.456 2.788a39.544 39.544 0 0 1 3.848 3.396 40.44 40.44 0 0 1 3.393 3.851c1.043 1.371 2.022 2.806 2.791 4.453zM333.355 198.559c.621 1.708.943 3.415 1.175 5.122.22 1.708.322 3.415.324 5.122.002 1.708-.1 3.415-.32 5.122-.231 1.707-.555 3.415-1.179 5.122-.625-1.708-.948-3.415-1.18-5.122a39.664 39.664 0 0 1-.32-5.122c.002-1.708.104-3.415.324-5.122.233-1.706.555-3.414 1.176-5.122z"/><path style="fill:#37474f" d="M343.6 208.804c-1.707.621-3.415.943-5.122 1.175-1.708.22-3.415.322-5.122.324-1.708.002-3.415-.1-5.122-.32-1.708-.232-3.415-.555-5.122-1.18 1.707-.625 3.415-.948 5.122-1.179a39.664 39.664 0 0 1 5.122-.32c1.707.002 3.415.104 5.122.324 1.707.233 3.414.556 5.122 1.176z"/><path style="fill:#37474f" d="M340.599 201.56c-.768 1.646-1.748 3.081-2.791 4.453a40.317 40.317 0 0 1-3.393 3.851 39.674 39.674 0 0 1-3.849 3.396c-1.371 1.044-2.807 2.023-4.456 2.788.766-1.649 1.744-3.085 2.788-4.456a39.544 39.544 0 0 1 3.396-3.848 40.44 40.44 0 0 1 3.851-3.393c1.372-1.043 2.808-2.022 4.454-2.791z"/><path style="fill:#37474f" d="M340.599 216.049c-1.646-.769-3.082-1.748-4.453-2.791a40.317 40.317 0 0 1-3.851-3.393 39.78 39.78 0 0 1-3.396-3.848c-1.044-1.371-2.022-2.807-2.788-4.456 1.649.766 3.085 1.744 4.456 2.788a39.674 39.674 0 0 1 3.849 3.396 40.44 40.44 0 0 1 3.393 3.851c1.042 1.371 2.022 2.806 2.79 4.453zM373.293 198.559c.621 1.708.943 3.415 1.175 5.122.22 1.708.322 3.415.324 5.122.002 1.708-.1 3.415-.32 5.122-.232 1.707-.555 3.415-1.18 5.122-.625-1.708-.948-3.415-1.18-5.122a39.664 39.664 0 0 1-.32-5.122c.002-1.708.104-3.415.324-5.122.234-1.706.556-3.414 1.177-5.122z"/><path style="fill:#37474f" d="M383.538 208.804c-1.708.621-3.415.943-5.122 1.175-1.708.22-3.415.322-5.122.324-1.708.002-3.415-.1-5.122-.32-1.707-.232-3.415-.555-5.122-1.18 1.707-.625 3.415-.948 5.122-1.179a39.664 39.664 0 0 1 5.122-.32c1.707.002 3.415.104 5.122.324 1.707.233 3.414.556 5.122 1.176z"/><path style="fill:#37474f" d="M380.537 201.56c-.768 1.646-1.748 3.081-2.791 4.453a40.317 40.317 0 0 1-3.393 3.851 39.78 39.78 0 0 1-3.848 3.396c-1.371 1.044-2.807 2.023-4.456 2.788.766-1.649 1.744-3.085 2.788-4.456a39.544 39.544 0 0 1 3.396-3.848 40.44 40.44 0 0 1 3.851-3.393c1.372-1.043 2.807-2.022 4.453-2.791z"/><path style="fill:#37474f" d="M380.537 216.049c-1.646-.769-3.082-1.748-4.453-2.791a40.317 40.317 0 0 1-3.851-3.393 39.78 39.78 0 0 1-3.396-3.848c-1.044-1.371-2.022-2.807-2.788-4.456 1.649.766 3.085 1.744 4.456 2.788a39.544 39.544 0 0 1 3.848 3.396 40.44 40.44 0 0 1 3.393 3.851c1.043 1.371 2.023 2.806 2.791 4.453zM413.231 198.559c.621 1.708.943 3.415 1.175 5.122.22 1.708.322 3.415.324 5.122.002 1.708-.1 3.415-.32 5.122-.232 1.707-.555 3.415-1.18 5.122-.625-1.708-.948-3.415-1.179-5.122a39.664 39.664 0 0 1-.32-5.122c.002-1.708.104-3.415.324-5.122.233-1.706.555-3.414 1.176-5.122z"/><path style="fill:#37474f" d="M423.476 208.804c-1.707.621-3.415.943-5.122 1.175-1.708.22-3.415.322-5.122.324-1.708.002-3.415-.1-5.122-.32-1.708-.232-3.415-.555-5.122-1.18 1.707-.625 3.415-.948 5.122-1.179a39.664 39.664 0 0 1 5.122-.32c1.707.002 3.415.104 5.122.324 1.707.233 3.415.556 5.122 1.176z"/><path style="fill:#37474f" d="M420.475 201.56c-.768 1.646-1.748 3.081-2.791 4.453a40.317 40.317 0 0 1-3.393 3.851 39.78 39.78 0 0 1-3.848 3.396c-1.371 1.044-2.807 2.023-4.456 2.788.766-1.649 1.745-3.085 2.788-4.456a39.544 39.544 0 0 1 3.396-3.848 40.44 40.44 0 0 1 3.851-3.393c1.372-1.043 2.807-2.022 4.453-2.791z"/><path style="fill:#37474f" d="M420.475 216.049c-1.646-.769-3.081-1.748-4.453-2.791a40.317 40.317 0 0 1-3.851-3.393 39.78 39.78 0 0 1-3.396-3.848c-1.044-1.371-2.022-2.807-2.788-4.456 1.649.766 3.085 1.744 4.456 2.788a39.544 39.544 0 0 1 3.848 3.396 40.44 40.44 0 0 1 3.393 3.851c1.043 1.371 2.023 2.806 2.791 4.453zM453.169 198.559c.621 1.708.943 3.415 1.175 5.122.22 1.708.322 3.415.324 5.122.002 1.708-.1 3.415-.32 5.122-.232 1.707-.555 3.415-1.18 5.122-.625-1.708-.948-3.415-1.18-5.122a39.664 39.664 0 0 1-.32-5.122c.002-1.708.104-3.415.324-5.122.234-1.706.556-3.414 1.177-5.122z"/><path style="fill:#37474f" d="M463.414 208.804c-1.707.621-3.415.943-5.122 1.175-1.708.22-3.415.322-5.122.324-1.707.002-3.415-.1-5.122-.32-1.708-.232-3.415-.555-5.122-1.18 1.707-.625 3.415-.948 5.122-1.179a39.664 39.664 0 0 1 5.122-.32c1.707.002 3.415.104 5.122.324 1.707.233 3.415.556 5.122 1.176z"/><path style="fill:#37474f" d="M460.414 201.56c-.768 1.646-1.748 3.081-2.791 4.453a40.317 40.317 0 0 1-3.393 3.851 39.674 39.674 0 0 1-3.849 3.396c-1.371 1.044-2.807 2.023-4.456 2.788.766-1.649 1.744-3.085 2.788-4.456a39.544 39.544 0 0 1 3.396-3.848 40.44 40.44 0 0 1 3.851-3.393c1.372-1.043 2.807-2.022 4.454-2.791z"/><path style="fill:#37474f" d="M460.414 216.049c-1.646-.769-3.082-1.748-4.453-2.791a40.317 40.317 0 0 1-3.851-3.393 39.78 39.78 0 0 1-3.396-3.848c-1.044-1.371-2.022-2.807-2.788-4.456 1.649.766 3.085 1.744 4.456 2.788a39.674 39.674 0 0 1 3.849 3.396 40.44 40.44 0 0 1 3.393 3.851c1.042 1.371 2.021 2.806 2.79 4.453z"/><path style="fill:#455a64" d="M425.47 199.76v54.46h-15.39v-54.46c0-20.71-15.73-37.55-35.08-37.55s-35.08 16.84-35.08 37.55v54.46h-15.39v-54.46c0-29.66 22.64-53.78 50.47-53.78s50.47 24.12 50.47 53.78z"/><path style="fill:#263238" d="m324.53 213.92 15.39.62v39.68h-15.39zM425.47 218.03v36.19h-15.39V217.4z"/><path style="fill:#ffc727" d="M304.805 223.21h140.389v127.365H304.805z"/><path style="opacity:.1" d="M375 223.21h70.195v127.365H375z"/><path style="fill:#263238" d="m380.938 291.556 5.877 27.878h-24.941l5.877-27.878c-3.512-2.222-5.877-6.092-5.877-10.535 0-6.952 5.59-12.47 12.47-12.47 6.88 0 12.47 5.519 12.47 12.47.001 4.443-2.365 8.313-5.876 10.535z"/><path style="fill:#ebebeb" d="M334.222 291.513s-7.339 58.761-19.402 71.983c-14.481 15.862-24.989 13.543-30.836 21.721-.012 0-.012.012-.012.012-5.846-8.19-16.355-5.859-30.848-21.733-12.063-13.222-19.39-71.983-19.39-71.983 31.786-15.43 50.238-32.723 50.238-32.723l.012.012c.567.53 18.946 17.527 50.238 32.711z"/><path style="fill:#dbdbdb" d="M283.984 258.802v126.415c-.012 0-.012.012-.012.012-5.846-8.19-16.355-5.859-30.848-21.733-12.063-13.222-19.39-71.983-19.39-71.983 31.786-15.43 50.238-32.723 50.238-32.723l.012.012z"/><path style="fill:#dbdbdb" d="M326.426 296.246s-6.199 49.638-16.388 60.813c-12.243 13.419-21.126 11.448-26.066 18.359-4.94-6.911-13.823-4.94-26.066-18.359-10.189-11.174-16.376-60.813-16.376-60.813 26.85-13.039 42.442-27.645 42.442-27.645s15.604 14.606 42.454 27.645z"/><path style="fill:#c7c7c7" d="M241.543 296.249s6.198 49.633 16.39 60.812c12.232 13.408 21.106 11.45 26.051 18.342V268.615c-.476.447-16.007 14.796-42.441 27.634z"/><circle transform="rotate(-45.001 283.976 322.014)" style="fill:#ffc727" cx="283.978" cy="322.009" r="19.683"/><path style="fill:#fff" d="m281.735 334.798-8.767-9.117 3.253-3.127 4.833 5.025 10.417-15.981 3.781 2.464z"/><path style="fill:#ffc727" d="m361.917 410.977-.457 2.341a4.898 4.898 0 0 1-5.746 3.869l-139.643-27.263 2.334-11.957 139.643 27.263a4.9 4.9 0 0 1 3.869 5.747z"/><path transform="rotate(-78.954 225.65 385.58)" style="opacity:.1" d="M219.568 377.003h12.189v17.178h-12.189z"/><path style="fill:#ffc727" d="m165.035 362.738-4.141 21.211c-1.463 7.493.251 14.872 4.197 20.748a27.56 27.56 0 0 0 17.634 11.69c14.999 2.928 29.515-6.856 32.441-21.843l4.141-21.211a27.564 27.564 0 0 0-4.199-20.736 27.57 27.57 0 0 0-17.646-11.693c-14.987-2.925-29.501 6.847-32.427 21.834zm45.598 5.317c-1.232 6.31-6.744 10.858-13.558 11.948 5.901 3.585 9.3 9.861 8.068 16.17-1.646 8.433-10.955 13.736-20.779 11.818-9.825-1.918-16.443-10.33-14.796-18.763 1.232-6.31 6.744-10.859 13.558-11.948-5.903-3.572-9.3-9.861-8.068-16.17 1.649-8.445 10.94-13.726 20.765-11.808 9.824 1.917 16.459 10.307 14.81 18.753z"/><path style="fill:#ffc727" d="m224.974 373.65-4.441 22.745a2.26 2.26 0 0 1-2.651 1.785l-1.08-.211a2.26 2.26 0 0 1-1.785-2.651l4.44-22.745a2.26 2.26 0 0 1 2.651-1.785l1.08.211a2.26 2.26 0 0 1 1.786 2.651z"/><path style="fill:#ffc727" d="m230.488 374.727-4.44 22.745a2.26 2.26 0 0 1-2.651 1.785l-1.08-.211a2.26 2.26 0 0 1-1.785-2.651l4.441-22.745a2.26 2.26 0 0 1 2.651-1.785l1.08.211a2.26 2.26 0 0 1 1.784 2.651zM324.685 393.616l4.161.812 2.359-12.082 3.552.693-1.23 6.298 4.149.81 1.23-6.298 3.149.615-1.945 9.959 4.162.812 1.944-9.958 4.467.872-2.597 13.302 4.162.813 2.597-13.303 4.222.825-3.319 17-37.162-7.255 3.319-17.001 5.138 1.004z"/><path style="fill:#c95f50" d="M467.972 331.353s-27.229 22.006-27.249 22.02c-5.229 4.181-9.739 7.94-11.891 10.102-.013.01-.026.019-.034.035-.813.815-1.282 1.396-1.307 1.677-.003.023-.012.039-.008.057.19 2.399 32.383 45.165 34.008 46.277 1.623 1.125 4.926-3.43 5.001-6.086.065-2.669-4.933-24.549-4.933-24.549l27.009-22.255-20.596-27.278z"/><path style="fill:#ebebeb" d="M446.314 348.856s-5.571 4.503-5.591 4.517c-5.229 4.181-9.739 7.94-11.891 10.102-.013.01-.026.019-.034.035-.761.857-1.234 1.461-1.307 1.677-.003.023-.012.039-.008.057.19 2.399 32.383 45.165 34.008 46.277 1.623 1.125 4.926-3.43 5.001-6.086.065-2.669-4.933-24.549-4.933-24.549l5.736-4.507-20.981-27.523z"/><path style="fill:#ffc727" d="M461.491 411.524c-1.628-1.114-33.819-43.875-34.009-46.281-.088-.913 5.869-5.967 13.243-11.867l.233-.183 21.076 27.355-.476.342s5.001 21.879 4.932 24.548c-.075 2.652-3.378 7.206-4.999 6.086z"/><path style="fill:#263238" d="M462.784 409.792c-5.249-7.341-27.115-36.457-32.862-43.315-.047-.056-.086-.026-.045.034 5.044 7.39 27.145 36.327 32.789 43.37.119.149.229.066.118-.089zM463.22 383.271c-1.606-3.235-4.653-6.376-8.306-7.022-.142-.025-.175.176-.077.247 2.989 2.134 5.522 4.321 8.016 7.034.175.191.482-.027.367-.259zM463.527 386.247c-1.606-3.235-4.653-6.376-8.306-7.023-.141-.025-.175.177-.077.247 2.989 2.135 5.522 4.322 8.016 7.034.176.192.482-.026.367-.258zM463.835 389.224c-1.606-3.235-4.653-6.377-8.306-7.023-.142-.025-.175.176-.077.247 2.989 2.134 5.523 4.321 8.016 7.034.175.191.481-.027.367-.258z"/><path style="fill:#37474f" d="M482.698 305.13c-1.928 9.527-41.455 47.541-41.455 47.541l27.557 31.81s56.119-56.019 53.19-77.068c-2.548-18.31-29.96-91.94-29.96-91.94h-31.625s24.19 80.289 22.293 89.657z"/><path style="fill:#37474f" d="M482.698 305.13c-1.928 9.527-41.455 47.541-41.455 47.541l27.557 31.81s56.119-56.019 53.19-77.068c-2.548-18.31-29.96-91.94-29.96-91.94h-31.625s24.19 80.289 22.293 89.657z"/><path style="fill:#263238" d="M471.935 376.918c-3.662-4.558-2.547-3.302-6.259-7.818-1.817-2.21-13.768-16.724-15.825-18.488-.045-.039-.122.025-.091.076 1.378 2.333 13.581 16.636 15.44 18.811 3.799 4.444 2.756 3.127 6.605 7.529.071.082.198-.024.13-.11zM486.625 300.485c-.453-2.379-.967-4.747-1.47-7.115a600.008 600.008 0 0 0-3.264-14.47 681.04 681.04 0 0 0-7.43-28.459c-2.696-9.465-5.545-18.912-8.827-28.191-.406-1.147-.824-2.289-1.242-3.432-.032-.087-.166-.048-.138.042 2.842 9.296 5.771 18.565 8.437 27.914 2.655 9.312 5.11 18.672 7.426 28.073 1.163 4.72 2.244 9.459 3.302 14.204.52 2.331 1.027 4.665 1.522 7.001.502 2.369 1.177 4.792 1.324 7.215.145 2.382-.632 4.493-1.858 6.499-1.185 1.94-2.581 3.765-3.929 5.594-2.702 3.664-28.442 32.348-29.271 33.128-.065.061.034.154.1.095 3.455-3.101 25.295-26.742 28.068-30.4a210.237 210.237 0 0 0 4.022-5.499c1.228-1.734 2.462-3.504 3.142-5.537.729-2.184.509-4.439.086-6.662z"/><path style="fill:#263238" d="m486.56 215.47-5.74 75.35c-5.48-25.79-20.41-75.35-20.41-75.35h26.15z"/><path style="fill:#c95f50" d="M472.999 370.612s6.827 33.242 6.826 33.267c.091 6.695.291 12.562.677 15.588a.093.093 0 0 0 .007.049c.145 1.142.315 1.869.522 2.061.016.017.024.033.04.042 2.011 1.323 55.533 2.154 57.409 1.554 1.884-.591.316-5.994-1.736-7.684-2.068-1.69-22.409-11.172-22.409-11.172l-7.158-33.221-34.178-.484z"/><path style="fill:#ebebeb" d="M538.483 423.171c-1.876.599-55.402-.229-57.41-1.55-.018-.009-.027-.026-.044-.044-.203-.194-.379-.916-.52-2.061-.009-.018-.009-.035-.009-.053-.388-3.021-.581-8.887-.678-15.581 0-.009-1.181-5.787-1.181-5.787h34.354l1.337 6.218s20.346 9.486 22.416 11.177c2.043 1.691 3.62 7.091 1.735 7.681z"/><path style="fill:#ffc727" d="M538.481 423.174c-1.879.601-55.396-.229-57.412-1.556-.775-.491-1.108-8.296-1.241-17.738l-.001-.296 34.533.15-.023.586s20.343 9.48 22.407 11.173c2.047 1.685 3.616 7.088 1.737 7.681z"/><path style="fill:#263238" d="M537.907 421.089c-9.018-.361-45.424-.969-54.366-.641-.073.003-.074.052-.001.057 8.93.553 45.341.865 54.365.732.19-.003.192-.14.002-.148zM517.236 404.468c-3.54-.718-7.89-.24-10.642 2.247-.107.096.032.246.147.212 3.52-1.05 6.801-1.708 10.473-2.011.26-.021.276-.396.022-.448zM519.775 406.052c-3.54-.718-7.89-.24-10.642 2.247-.107.096.032.247.147.212 3.52-1.05 6.801-1.707 10.473-2.011.26-.021.275-.396.022-.448zM522.313 407.636c-3.54-.718-7.89-.24-10.642 2.247-.107.096.032.246.147.212 3.52-1.05 6.801-1.708 10.473-2.011.26-.021.276-.396.022-.448z"/><path style="fill:#37474f" d="M488.981 215.473c-.037.664-1.803 6.72-2.717 15.78-.659 6.618-1.486 12.473-2.368 13.202-.999.822-5.997 4.033-7.68 5.059 0 0 15.584 47.237 19.605 62.982 5.829 22.828 19.792 91.312 19.792 91.312l-37.202-.006s-11.312-65.197-16.257-86.929c-4.239-18.631-20.481-74.525-20.481-74.525-5.908-14.529 1.315-26.876 1.315-26.876s45.998-.025 45.993.001z"/><path style="fill:#263238" d="M514.268 396.57c-5.846-.031-4.168-.105-10.015-.07-2.861.017-21.662.145-24.328.629-.059.011-.057.11.002.119 2.68.401 21.475-.054 24.336-.126 5.845-.147 4.165-.168 10.008-.381.109-.005.106-.171-.003-.171zM486.531 242.59c-3.626 1.913-7.032 4.359-10.263 6.87-.127.098-.002.3.138.212 3.478-2.179 7.04-4.3 10.394-6.668.265-.187.01-.561-.269-.414zM483.691 216.89c-.03-.127-.261-.121-.238.018.717 4.419 1.039 8.356 1.308 12.548.125 1.947.228 12.795-3.221 12.538-.577-.043-.947-.547-1.165-1.374-.262-.994-.074-2.292-.063-3.322a84.91 84.91 0 0 0-.182-6.825c-.294-4.243-.927-8.433-2.084-12.528-.038-.135-.234-.094-.213.045.905 5.796 1.651 11.606 1.676 17.482.012 2.824-.733 7.194 2.219 7.17 3.007-.024 3.828-7.277 3.891-9.236.176-5.467-.674-11.207-1.928-16.516z"/><path style="fill:#263238" d="M481.672 242.266c-.19.759-.317 1.538-.407 2.315-.07.604-.19 1.263-.03 1.856.031.115.188.102.238.013.313-.556.373-1.258.5-1.879.147-.719.311-1.436.438-2.159.084-.48-.622-.614-.739-.146zM446.947 242.083c3.806-.39 5.751-.564 9.427-1.782 3.415-1.132 6.607-3 9.14-5.643 1.366-1.425 2.69-3.076 3.505-4.903.032-.071.146-.019.121.054-.603 1.767-1.327 3.429-2.479 4.912a18.938 18.938 0 0 1-4.027 3.844c-3.247 2.298-6.352 3.481-10.234 3.95-2.193.265-3.33.266-5.505-.088-.205-.034-.124-.326.052-.344zM474.085 376.073a97.222 97.222 0 0 0-.337-2.579c-.233-1.649-.51-3.291-.764-4.937a435.416 435.416 0 0 0-1.662-9.897c-1.167-6.569-2.515-13.117-3.936-19.636-.803-3.685-1.738-7.327-2.723-10.967-.069-.253-.426-.131-.382.116.599 3.332 1.175 6.665 1.857 9.982.679 3.306 1.357 6.613 2.014 9.924 1.299 6.545 2.51 13.107 3.805 19.653.365 1.848.697 3.701 1.058 5.549.18.922.366 1.844.565 2.762.197.915.483 1.816.634 2.74.014.087.146.047.132-.04-.144-.88-.159-1.782-.261-2.67zM499.736 326.645c-1.239-6.173-2.909-12.266-4.588-18.33-3.38-12.207-7.36-24.238-11.331-36.263-1.144-3.465-2.286-6.931-3.432-10.395-.573-1.731-3.377-11.073-3.725-11.96-.035-.09-.169-.052-.145.044.803 3.182 1.907 7.822 2.835 10.972.918 3.113 1.92 6.204 2.887 9.302 1.9 6.091 3.833 12.171 5.678 18.278 3.647 12.071 7.268 24.138 10.229 36.401.829 3.434 1.655 6.865 2.412 10.316.756 3.445 1.402 6.912 2.124 10.364.02.094.178.07.168-.027-.623-6.291-1.87-12.511-3.112-18.702z"/><path style="fill:#263238" d="M476.61 358.935c-2.048-11.776-4.501-23.488-7.218-35.126a676.293 676.293 0 0 0-9.122-34.853c-3.35-11.533-7.063-22.964-11.05-34.291-1.89-5.369-3.812-10.748-5.052-16.313-1.226-5.501-1.849-11.452-.568-17a28.358 28.358 0 0 1 1.272-4.133c.037-.093-.098-.171-.139-.077-4.474 10.424-1.571 21.828 1.836 32.106 1.866 5.631 3.858 11.219 5.698 16.859a676.388 676.388 0 0 1 5.431 17.442c3.433 11.569 6.621 23.207 9.476 34.933a692.785 692.785 0 0 1 7.636 35.379c2.246 11.899 4.133 23.846 6.048 35.801.249 1.555.446 3.118.65 4.68.011.087.148.085.138-.003-1.436-11.846-2.991-23.646-5.036-35.404z"/><path style="fill:#c95f50" d="M475.853 166.082c4.375 15.991 16.99 35.298 22.972 37.954 5.226 2.32 29.443-6.638 38.58-12.459 2.605-1.659-8.146-16.63-11.279-15.586-10.224 3.41-21.358 8.447-22.218 8.156-1.738-.588-12.6-13.91-20.505-22.863-8.857-10.031-9.294-1.574-7.55 4.798zM554.703 178.054c2.056-.863 17.91-1.368 17.904-4.804-.006-3.436-20.175-2.476-20.175-2.476l2.271 7.28z"/><path style="fill:#c95f50" d="M524.3 178.454c2.771-3.443 5.206-7.156 7.615-7.836 1.668-.471 19.615.304 22.419.133 2.804-.171 12.808.088 13.038 2.546.326 3.476-11.513 3.444-12.776 5.22-4.363 6.133-20.95 15.2-20.95 15.2l-9.346-15.263z"/><path style="fill:#263238" d="M567.636 173.348c-.133-.641-.626-1.179-1.147-1.546-1.225-.862-2.839-.934-4.281-1.051-2.178-.176-4.397-.243-6.576-.052-.048.004-.047.075.002.076 1.642.023 3.279.042 4.917.18 1.471.124 3.031.226 4.445.68.638.205 1.271.505 1.711 1.027.299.354.488.843.337 1.323-.478 1.514-3.464 1.963-4.842 2.271-1.802.403-3.671.757-5.48 1.127-.079.016-.042.136.036.121 1.88-.373 3.863-.516 5.75-.857 1.529-.277 3.168-.588 4.404-1.602.514-.422.866-1.015.724-1.697z"/><path style="fill:#ffc727" d="m523.613 176.335 14.195 20.79s-22.02 11.023-30.416 10.824c-8.013-.19-10.917-1.371-13.445-3.76-1.563-1.478-10.478-14.064-17.744-34.965-6.1-17.545 2.923-14.96 10.97-5.245 4.011 4.843 16.837 19.272 17.478 19.218.641-.055 18.962-6.862 18.962-6.862z"/><path style="fill:#263238" d="M519.241 179.715c2.133 3.076 4.169 6.217 6.184 9.372.988 1.547 4.671 7.847 5.742 9.633.042.071-.151.187-.199.119-1.111-1.579-5.122-7.868-6.084-9.432-1.958-3.185-3.895-6.382-5.731-9.639-.033-.059.05-.107.088-.053z"/><path style="opacity:.1" d="M511.647 207.422c-1.618.361-3.071.557-4.256.526-8.007-.186-10.914-1.371-13.438-3.762-1.567-1.474-10.481-14.057-17.746-34.966-1.401-4.04-2.009-7.008-2.009-9.069 0-.196.01-.392.021-.567.01-.186.021-.361.052-.536.021-.155.041-.299.072-.433.165-.783.464-1.34.876-1.711 4.914 6.627 28.214 38.069 36.428 50.518z"/><path style="fill:#c7c7c7" d="M509.938 167.796h53.841v2.895h-53.841z"/><path style="fill:#a6a6a6" d="M563.779 167.796v2.894h-32.701l2.214-2.894z"/><path style="fill:#c7c7c7" d="M535.671 170.691h36.007l18.738-31.823h-36.007z"/><path style="fill:#fff" d="M561.699 154.76c-.672 1.473-.177 3.023 1.105 3.462 1.282.439 2.867-.4 3.539-1.873.672-1.473.177-3.023-1.105-3.462-1.283-.439-2.867.4-3.539 1.873z"/><path style="fill:#ebebeb" d="M439.526 226.428c.132.145 56.372-.26 56.879-.842.707-.82-12.614-61.62-18.463-69.089-1.252-1.597-5.329-2.002-8.788-1.536a15.48 15.48 0 0 0-2.661.572.425.425 0 0 1-.089.025c-.802.268-1.482.601-1.949.979-9.555 7.789-17.385 34.754-19.197 42.846-3.003 13.332-6.201 26.521-5.732 27.045z"/><path style="fill:#ffc727" d="M465.803 155.673s3.668 25.033 4.532 31.513c.864 6.48.043 40.75.043 40.75l-35.288 2.977s7.396-22.76 7.471-24.202c0 0 5.853-27.347 11.891-38.644 4.442-8.313 11.351-12.394 11.351-12.394zM477.554 156.109s4.763 25.321 5.19 27.412c.427 2.091 6.526 43.24 6.526 43.24l8.834.186-4.797-18.796c-.001.001-10.246-48.152-15.753-52.042z"/><path style="fill:#c95f50" d="M475.563 164.204c-2.686.306-7.761-3.422-9.178-7.378-.096-.272.703-2.842 1.526-6.01.492-1.925.994-4.08 1.311-6.079.063-.411 12.058 5.031 12.058 5.031s-1.896 3.996-2.426 7.486a4.605 4.605 0 0 0-.044.834c-.002.038.002.086-.003.139.007 1.597-.371 5.649-3.244 5.977z"/><path style="fill:#263238" d="M478.814 158.087c-.005.04-.003.09-.009.138a8.573 8.573 0 0 1-1.294-.136c-7.355-1.331-7.841-10.878-7.846-13.279 2.178.672 11.616 4.956 11.616 4.956s-1.897 4-2.429 7.489a4.393 4.393 0 0 0-.038.832z"/><path style="fill:#c95f50" d="M469.358 128.802c-1.925 4.295-1.191 17.495 1.624 20.772 4.081 4.75 11.571 6.098 15.811 1.008 4.111-4.934 2.849-22.12-.371-25.181-4.742-4.509-14.221-2.944-17.064 3.401z"/><path style="fill:#263238" d="M479.082 138.145c-.009-.033-.067.046-.064.082.073.888.008 1.917-.782 2.253-.025.01-.02.055.01.049.975-.187 1.048-1.554.836-2.384z"/><path style="fill:#263238" d="M478.241 137.257c-1.436-.036-1.402 2.839-.072 2.872 1.309.033 1.275-2.842.072-2.872zM484.557 138.105c.006-.034.07.041.069.078-.018.891.112 1.914.921 2.2.025.009.023.054-.007.05-.984-.127-1.143-1.487-.983-2.328z"/><path style="fill:#263238" d="M485.341 137.165c1.431-.125 1.576 2.746.251 2.862-1.304.115-1.45-2.757-.251-2.862zM477.091 135.956c.39-.103.733-.263 1.109-.405.424-.16.778-.244 1.052-.629.147-.206.08-.573-.107-.734-.436-.377-1.003-.31-1.521-.138-.562.187-.947.474-1.265.973-.307.483.217 1.069.732.933zM486.436 134.75c-.399-.06-.757-.182-1.146-.283-.439-.113-.799-.158-1.114-.512-.169-.189-.142-.561.026-.742.392-.421.964-.416 1.497-.301.579.125.993.369 1.362.83.36.448-.099 1.087-.625 1.008zM478.786 146.384c.216.206.432.491.755.514.31.022.672-.122.954-.235.028-.011.057.018.039.045-.227.345-.711.564-1.125.497-.404-.066-.607-.412-.709-.779-.013-.052.055-.072.086-.042z"/><path style="fill:#263238" d="M479.691 143.707c.507.767 1.245 1.181 2.039 1.325.355.067.727.075 1.091.037.072-.002.143-.011.208-.026.065-.009.124-.017.195-.032.104-.016.16-.103.176-.201v-.006a.46.46 0 0 0-.009-.091v-.007l-.003-.078c.011-.686-.068-1.728-.068-1.728.252.122 1.536.682 1.511.324-.212-2.963-.447-6.258-1.283-9.162-.023-.097-.172-.073-.162.025.091 2.856.683 5.676.82 8.543-.409-.15-1.078-.429-1.436-.418-.097.029.188 2.011.159 2.318 0 0 0 .013-.005.033-1.15.161-2.022-.177-3.15-.938-.067-.049-.137.012-.083.082z"/><path style="fill:#263238" d="M482.413 144.727s-.598.827-1.427 1.133a1.618 1.618 0 0 1-.982.073c-.713-.179-.739-.831-.615-1.391.1-.46.309-.858.309-.858s1.049.959 2.715 1.043z"/><path style="fill:#ff9bbc" d="M480.986 145.86a1.618 1.618 0 0 1-.982.073c-.713-.179-.739-.831-.615-1.391.763.069 1.524.578 1.597 1.318z"/><path style="fill:#263238" d="M468.262 140.209s-3.19-7.918-2.104-12.017c.491-1.853 3.263-2.704 3.263-2.704s-.394-2.416 2.042-4.06c2.568-1.734 7.884-.385 7.884-.385s4.318-4.482 8.938-1.673c4.62 2.809.484 7.89.484 7.89s1.396 2.871-3.365 4.162c-4.635 1.257-13.146-2.108-13.146-2.108s-.024 4.638-1.626 9.116c-.593 1.659-2.37 1.779-2.37 1.779z"/><path style="fill:#263238" d="M480.19 121.247c-1.015-.652-2.188-1.011-3.376-1.202-1.053-.17-2.16-.216-3.213-.02-1.883.349-3.678 1.402-4.296 3.308a3.674 3.674 0 0 0 .245 2.85c.019.036.074 0 .053-.036-.914-1.602.047-3.706 1.421-4.699 1.555-1.123 3.682-1.299 5.533-1.077 1.239.148 2.421.542 3.584.979.068.024.109-.064.049-.103zM491.434 122.332c-.186-1.451-1.227-2.535-2.491-3.177-1.44-.732-3.131-.914-4.709-.599-1.608.32-3.073 1.129-4.292 2.215-.027.024.015.071.042.048 2.218-1.896 5.333-2.675 8.109-1.599 1.241.481 2.42 1.354 2.815 2.679.363 1.218.012 2.635-.709 3.655-.89 1.26-2.295 2.095-3.698 2.669-.033.013-.015.063.018.051 1.345-.464 2.641-1.12 3.609-2.188.915-1.008 1.482-2.38 1.306-3.754zM486.436 131.831c-2.094.525-4.285.452-6.395.064-2.21-.406-4.331-1.094-6.4-1.963a69.811 69.811 0 0 1-3.553-1.626c-.038-.018-.063.037-.028.058 2.026 1.235 4.116 2.374 6.362 3.159 2.092.732 4.252 1.105 6.472.994a14.34 14.34 0 0 0 3.557-.64c.031-.01.015-.054-.015-.046z"/><path style="fill:#c95f50" d="M471.279 139.874s-2.483-4.491-4.491-3.648c-2.008.842-.448 7.137 1.692 8.202 2.14 1.064 3.164-.898 3.164-.898l-.365-3.656z"/><path style="fill:#263238" d="M467.28 138.02c-.036-.007-.048.042-.018.058 1.495.798 2.165 2.333 2.582 3.896-.404-.627-1.003-1.011-1.836-.539-.044.025-.011.093.034.088.654-.069 1.104.09 1.483.648.268.395.429.876.604 1.318.058.147.318.099.282-.067l-.009-.038c.25-1.988-1.004-4.939-3.122-5.364z"/><path style="fill:#c95f50" d="M458.711 161.43c-14.158 15.898-24.808 38.286-24.68 43.554.14 5.798 7.517 26.224 14.553 35.822.904 1.234 6.382.718 11.02-1.836 4.886-2.69 8.896-7.494 7.935-8.924-3.605-5.366-12.156-26.168-12.079-29.42.071-3.007 7.079-21.413 9.749-32.062 2.565-10.229.088-14.529-6.498-7.134z"/><path style="fill:#ffc727" d="m439.984 239.238 26.368-12.878s-10.372-23.137-10.389-25.636c-.017-2.499 6.819-22.068 9.391-31.107 2.572-9.039 1.577-19.197-9.683-5.528s-21.097 33.994-22.217 39.396c-1.12 5.402 6.53 35.753 6.53 35.753z"/><path style="fill:#263238" d="M457.317 194.082a274.625 274.625 0 0 1 1.684-5.133c.648-1.911 1.32-3.813 2.025-5.704.687-1.843 1.456-3.643 2.194-5.464.053-.131.285-.046.236.09-.876 2.433-1.697 4.892-2.515 7.349.617-1.12 1.243-2.234 1.901-3.332.054-.091.196-.015.145.079a114.137 114.137 0 0 1-2.303 4.023l-.593 1.777c-1.106 3.301-2.171 6.622-3.12 9.972-.213.751-.417 1.517-.473 2.299-.065.903.123 1.765.389 2.622a113.223 113.223 0 0 0 1.565 4.602 187.063 187.063 0 0 0 3.553 9.089c1.429 3.413 3.053 6.791 4.676 10.118 0 0-.986.262-1.012.283-.027.021-.076-.031-.054-.058.023-.027.62-.323.637-.324-1.649-2.885-3.224-5.713-4.607-8.738a115.325 115.325 0 0 1-3.713-9.145c-.57-1.595-1.118-3.2-1.625-4.817-.496-1.583-.787-3.063-.444-4.714.343-1.651.944-3.266 1.454-4.874zM439.551 231.813c.888-.552 1.93-.917 2.877-1.359.859-.4 1.713-.815 2.577-1.204 1.886-.85 3.766-1.712 5.656-2.552 1.885-.838 3.765-1.687 5.657-2.507 1.883-.816 3.747-1.699 5.672-2.411.074-.027.122.084.057.124-1.751 1.075-3.618 1.969-5.455 2.887a144.767 144.767 0 0 1-5.5 2.581 167.6 167.6 0 0 1-5.7 2.408c-.921.373-1.856.713-2.788 1.058-.982.364-1.988.841-3.01 1.068-.055.012-.095-.06-.043-.093z"/></svg>