<svg width="30" height="31" fill="none" xmlns="http://www.w3.org/2000/svg"><path d="M27.857.5H2.137C.956.5 0 1.471 0 2.663v25.674C0 29.53.958 30.5 2.136 30.5h25.721c1.179 0 2.143-.971 2.143-2.163V2.663C30 1.47 29.036.5 27.857.5ZM9.067 26.214H4.621V11.897h4.453v14.317h-.007ZM6.844 9.942a2.58 2.58 0 0 1 0-5.156 2.584 2.584 0 0 1 2.578 2.578 2.575 2.575 0 0 1-2.578 2.578Zm18.89 16.272h-4.446V19.25c0-1.66-.034-3.797-2.31-3.797-2.317 0-2.672 1.808-2.672 3.677v7.084h-4.447V11.897h4.266v1.956h.06c.596-1.125 2.05-2.31 4.212-2.31 4.5 0 5.337 2.966 5.337 6.823v7.848Z" fill="#fff"/></svg>